<svg xmlns="http://www.w3.org/2000/svg" xmlns:xlink="http://www.w3.org/1999/xlink" width="745" height="768" viewBox="0 0 745 768">
  <defs>
    <clipPath id="clip-CORD_right_image">
      <rect width="745" height="768"/>
    </clipPath>
  </defs>
  <g id="CORD_right_image" data-name="CORD right image" clip-path="url(#clip-CORD_right_image)">
    <rect width="745" height="768" fill="rgba(255,255,255,0)"/>
    <g id="Group_149" data-name="Group 149" transform="translate(14.464 17)" opacity="0.5" style="isolation: isolate">
      <path id="Path_2" data-name="Path 2" d="M245.36,68.568c-19.627,47.154-122.2,39.26-126.681,83.558-5.393,53.383,78.257,49.465,114,38.247,88.868-27.89,94.149,35.468,168.389,54.065,55.431,13.886,73.384-49.035,134.8-25.427,57.078,21.932,77.883-56.33,36.752-81.084-54.3-32.683-115.394,18.175-155.963-42.544C380.871,41.817,300.691-64.364,245.36,68.568Z" transform="translate(547.688 382.795)" fill="none" stroke="#0391f7" stroke-linecap="round" stroke-linejoin="round" stroke-width="4"/>
      <path id="Path_3" data-name="Path 3" d="M247.781,69.447c-20.708,49.756-128.943,41.425-133.665,88.169-5.692,56.327,82.571,52.2,120.29,40.355,93.767-29.428,99.339,37.425,177.673,57.046,58.49,14.654,77.432-51.737,142.239-26.831,60.225,23.145,82.18-59.434,38.78-85.555-57.292-34.486-121.759,19.179-164.565-44.889C390.765,41.224,306.163-70.815,247.781,69.447Z" transform="translate(539.206 377.864)" fill="none" stroke="#0391f7" stroke-linecap="round" stroke-linejoin="round" stroke-width="4"/>
      <path id="Path_4" data-name="Path 4" d="M250.2,70.329c-21.793,52.359-135.686,43.591-140.653,92.779-5.989,59.269,86.888,54.921,126.578,42.464C334.8,174.6,340.661,244.949,423.09,265.6c61.546,15.419,81.478-54.444,149.675-28.235,63.372,24.355,86.471-62.542,40.806-90.026C553.283,111.05,485.446,167.517,440.4,100.1,400.661,40.63,311.636-77.265,250.2,70.329Z" transform="translate(530.722 372.934)" fill="none" stroke="#0391f7" stroke-linecap="round" stroke-linejoin="round" stroke-width="4"/>
      <path id="Path_5" data-name="Path 5" d="M252.628,71.211C229.751,126.169,110.2,116.967,104.988,168.6c-6.288,62.211,91.2,57.648,132.864,44.572C341.421,180.664,347.579,254.5,434.1,276.18c64.6,16.186,85.527-57.146,157.107-29.636,66.522,25.564,90.768-65.649,42.835-94.5-63.283-38.09-134.487,21.182-181.77-49.58C410.56,40.037,317.112-83.716,252.628,71.211Z" transform="translate(522.239 368.003)" fill="none" stroke="#0391f7" stroke-linecap="round" stroke-linejoin="round" stroke-width="4"/>
      <path id="Path_6" data-name="Path 6" d="M255.051,72.092c-23.958,57.557-149.167,47.922-154.628,102-6.585,65.155,95.519,60.376,139.152,46.681,108.472-34.044,114.917,43.291,205.534,65.991,67.663,16.954,89.575-59.851,164.543-31.037,69.672,26.774,95.065-68.753,44.863-98.971-66.279-39.893-140.853,22.183-190.372-51.928C420.455,39.443,322.586-90.165,255.051,72.092Z" transform="translate(513.755 363.074)" fill="none" stroke="#0391f7" stroke-linecap="round" stroke-linejoin="round" stroke-width="4"/>
      <path id="Path_7" data-name="Path 7" d="M257.472,72.974c-25.039,60.159-155.9,50.085-161.612,106.6-6.882,68.1,99.835,63.106,145.44,48.792,113.371-35.582,120.11,45.246,214.821,68.973C526.84,315.058,549.742,234.786,628.1,264.9c72.816,27.981,99.359-71.86,46.889-103.445-69.272-41.693-147.218,23.188-198.975-54.273C430.351,38.848,328.059-96.615,257.472,72.974Z" transform="translate(505.272 358.143)" fill="none" stroke="#0391f7" stroke-linecap="round" stroke-linejoin="round" stroke-width="4"/>
      <path id="Path_8" data-name="Path 8" d="M259.895,73.856C233.774,136.615,97.25,126.106,91.3,185.067c-7.179,71.044,104.152,65.834,151.726,50.9,118.275-37.12,125.3,47.2,224.111,71.954,73.774,18.483,97.667-65.258,179.41-33.841,75.966,29.191,103.656-74.967,48.915-107.916-72.265-43.5-153.578,24.189-207.574-56.618C440.247,38.254,333.532-103.066,259.895,73.856Z" transform="translate(496.789 353.212)" fill="none" stroke="#0391f7" stroke-linecap="round" stroke-linejoin="round" stroke-width="4"/>
      <path id="Path_9" data-name="Path 9" d="M262.318,74.738c-27.2,65.36-169.384,54.416-175.587,115.819-7.475,73.988,108.466,68.562,158.014,53.009,123.174-38.658,130.5,49.16,233.4,74.939,76.833,19.247,101.716-67.965,186.849-35.245,79.113,30.4,107.95-78.074,50.941-112.386-75.261-45.3-159.943,25.191-216.176-58.967C450.143,37.661,339.009-109.517,262.318,74.738Z" transform="translate(488.305 348.282)" fill="none" stroke="#0391f7" stroke-linecap="round" stroke-linejoin="round" stroke-width="4"/>
      <path id="Path_10" data-name="Path 10" d="M264.742,75.617C236.452,143.579,88.615,132.2,82.167,196.046c-7.775,76.933,112.783,71.289,164.3,55.12,128.076-40.2,135.688,51.115,242.682,77.917,79.889,20.015,105.761-70.667,194.281-36.646,82.26,31.61,112.247-81.181,52.969-116.86-78.257-47.1-166.309,26.195-224.779-61.312C460.041,37.067,344.482-115.965,264.742,75.617Z" transform="translate(479.822 343.351)" fill="none" stroke="#0391f7" stroke-linecap="round" stroke-linejoin="round" stroke-width="4"/>
      <path id="Path_11" data-name="Path 11" d="M267.162,76.5C237.794,147.061,84.3,135.246,77.6,201.536c-8.072,79.877,117.1,74.02,170.591,57.229,132.975-41.733,140.878,53.072,251.969,80.9,82.945,20.78,109.81-73.375,201.716-38.05,85.407,32.82,116.541-84.288,54.995-121.331-81.25-48.906-172.674,27.194-233.381-63.66C469.937,36.472,349.956-122.416,267.162,76.5Z" transform="translate(471.338 338.42)" fill="none" stroke="#0391f7" stroke-linecap="round" stroke-linejoin="round" stroke-width="4"/>
      <path id="Path_12" data-name="Path 12" d="M269.585,77.381c-30.452,73.164-189.6,60.912-196.547,129.645-8.368,82.822,121.417,76.748,176.877,59.337,137.88-43.271,146.074,55.029,261.256,83.883,86.006,21.547,113.859-76.077,209.152-39.454,88.557,34.033,120.838-87.393,57.023-125.8-84.246-50.709-179.037,28.2-241.983-66.005C479.833,35.879,355.432-128.866,269.585,77.381Z" transform="translate(462.855 333.49)" fill="none" stroke="#0391f7" stroke-linecap="round" stroke-linejoin="round" stroke-width="4"/>
      <path id="Path_13" data-name="Path 13" d="M272.009,78.263C240.475,154.026,75.665,141.341,68.475,212.516c-8.665,85.766,125.731,79.475,183.165,61.449,142.778-44.812,151.264,56.984,270.544,86.862,89.062,22.315,117.9-78.779,216.584-40.855,91.707,35.242,125.132-90.5,59.052-130.273-87.241-52.513-185.4,29.2-250.586-68.351C489.729,35.285,360.9-135.317,272.009,78.263Z" transform="translate(454.371 328.56)" fill="none" stroke="#0391f7" stroke-linecap="round" stroke-linejoin="round" stroke-width="4"/>
      <path id="Path_14" data-name="Path 14" d="M274.432,79.144C241.815,157.509,71.349,144.387,63.911,218c-8.962,88.711,130.048,82.2,189.454,63.557,147.68-46.35,156.457,58.941,279.831,89.846,92.118,23.076,121.95-81.487,224.02-42.258C852.065,365.6,886.64,235.543,818.292,194.4c-90.237-54.313-191.767,30.2-259.188-70.7C499.624,34.691,366.378-141.766,274.432,79.144Z" transform="translate(445.888 323.63)" fill="none" stroke="#0391f7" stroke-linecap="round" stroke-linejoin="round" stroke-width="4"/>
      <path id="Path_15" data-name="Path 15" d="M276.855,80.026C243.154,160.99,67.03,147.432,59.347,223.495c-9.261,91.655,134.364,84.933,195.739,65.669,152.582-47.888,161.652,60.9,289.118,92.825,95.176,23.844,126-84.189,231.455-43.659,98,37.659,133.722-96.714,63.1-139.218C745.535,143,640.632,230.316,570.975,126.067,509.523,34.1,371.855-148.217,276.855,80.026Z" transform="translate(437.404 318.699)" fill="none" stroke="#0391f7" stroke-linecap="round" stroke-linejoin="round" stroke-width="4"/>
      <path id="Path_16" data-name="Path 16" d="M279.276,80.906C244.5,164.472,62.714,150.48,54.783,228.988c-9.558,94.6,138.681,87.658,202.027,67.774,157.484-49.426,166.842,62.853,298.4,95.81,98.232,24.609,130.045-86.9,238.89-45.063,101.148,38.869,138.017-99.821,65.13-143.691-96.223-57.917-204.493,32.209-276.39-75.389C519.419,33.5,377.328-154.667,279.276,80.906Z" transform="translate(428.921 313.768)" fill="none" stroke="#0391f7" stroke-linecap="round" stroke-linejoin="round" stroke-width="4"/>
      <path id="Path_17" data-name="Path 17" d="M281.7,81.787c-35.864,86.169-223.3,71.74-231.481,152.69-9.855,97.541,143,90.386,208.316,69.883,162.383-50.963,172.035,64.81,307.692,98.791,101.288,25.376,134.093-89.6,246.323-46.464,104.3,40.079,142.313-102.928,67.158-148.162-99.219-59.72-210.858,33.211-284.992-77.738C529.315,32.91,382.8-161.117,281.7,81.787Z" transform="translate(420.437 308.837)" fill="none" stroke="#0391f7" stroke-linecap="round" stroke-linejoin="round" stroke-width="4"/>
      <path id="Path_18" data-name="Path 18" d="M284.122,82.668c-36.949,88.768-230.043,73.906-238.468,157.3C35.5,340.453,192.967,333.08,260.259,311.961c167.284-52.5,177.228,66.764,316.976,101.773C681.584,439.874,715.377,321.43,831,365.866,938.438,407.154,977.6,259.83,900.18,213.23c-102.215-61.523-217.223,34.212-293.594-80.08C539.21,32.316,388.277-167.566,284.122,82.668Z" transform="translate(411.954 303.908)" fill="none" stroke="#0391f7" stroke-linecap="round" stroke-linejoin="round" stroke-width="4"/>
      <path id="Path_19" data-name="Path 19" d="M286.546,83.55C248.516,174.917,49.761,159.619,41.09,245.456c-10.451,103.43,151.629,95.841,220.89,74.1C434.166,265.517,444.4,388.278,588.246,424.313c107.4,26.908,142.188-95.008,261.194-49.269,110.592,42.5,150.9-109.142,71.212-157.107-105.208-63.326-223.589,35.214-302.2-82.428C549.106,31.722,393.751-174.017,286.546,83.55Z" transform="translate(403.47 298.977)" fill="none" stroke="#0391f7" stroke-linecap="round" stroke-linejoin="round" stroke-width="4"/>
      <path id="Path_20" data-name="Path 20" d="M288.969,84.432C249.855,178.4,45.445,162.666,36.526,250.946,25.778,357.318,192.469,349.518,263.7,327.157c177.088-55.577,187.613,70.679,335.553,107.736,110.461,27.676,146.234-97.71,268.626-50.669,113.742,43.708,155.2-112.25,73.241-161.578-108.2-65.129-229.951,36.215-310.8-84.776C559,31.129,399.224-180.468,288.969,84.432Z" transform="translate(394.987 294.047)" fill="none" stroke="#0391f7" stroke-linecap="round" stroke-linejoin="round" stroke-width="4"/>
      <path id="Path_21" data-name="Path 21" d="M291.39,85.314C251.2,181.882,41.127,165.713,31.962,256.435c-11.045,109.316,160.26,101.3,233.467,78.322,181.987-57.118,192.8,72.63,344.837,110.717C723.785,473.916,760.548,345.058,886.33,393.4c116.886,44.92,159.492-115.351,75.267-166.049-111.2-66.93-236.317,37.22-319.4-87.122C568.9,30.533,404.7-186.916,291.39,85.314Z" transform="translate(386.503 289.117)" fill="none" stroke="#0391f7" stroke-linecap="round" stroke-linejoin="round" stroke-width="4"/>
      <path id="Path_22" data-name="Path 22" d="M293.811,86.2c-41.277,99.168-257,82.565-266.412,175.73C16.055,374.186,191.973,365.952,267.148,342.356c186.891-58.655,198,74.588,354.127,113.7,116.575,29.205,154.331-103.119,283.5-53.477,120.036,46.13,163.789-118.458,77.292-170.52-114.193-68.736-242.679,38.221-328-89.467C578.795,29.939,410.172-193.367,293.811,86.2Z" transform="translate(378.022 284.186)" fill="none" stroke="#0391f7" stroke-linecap="round" stroke-linejoin="round" stroke-width="4"/>
      <path id="Path_23" data-name="Path 23" d="M296.235,87.075c-42.361,101.773-263.742,84.731-273.4,180.34C11.194,382.621,191.726,374.17,268.873,349.955c191.79-60.193,203.192,76.545,363.414,116.683,119.631,29.97,158.377-105.824,290.932-54.881C1046.4,459.1,1091.3,290.192,1002.537,236.764c-117.186-70.536-249.042,39.225-336.6-91.812C588.691,29.347,415.646-199.817,296.235,87.075Z" transform="translate(369.538 279.255)" fill="none" stroke="#0391f7" stroke-linecap="round" stroke-linejoin="round" stroke-width="4"/>
      <path id="Path_24" data-name="Path 24" d="M298.658,87.957c-43.442,104.372-270.484,86.9-280.387,184.948C6.331,391.055,191.476,382.39,270.6,357.556c196.692-61.731,208.382,78.5,372.7,119.662,122.689,30.737,162.425-108.529,298.368-56.282,126.33,48.547,172.38-124.672,81.347-179.465C902.829,169.132,767.6,281.7,677.8,147.311,598.586,28.753,421.119-206.268,298.658,87.957Z" transform="translate(361.055 274.325)" fill="none" stroke="#0391f7" stroke-linecap="round" stroke-linejoin="round" stroke-width="4"/>
      <path id="Path_25" data-name="Path 25" d="M301.078,88.838C256.555,195.812,23.859,177.9,13.707,278.394,1.47,399.488,191.228,390.606,272.321,365.153,473.912,301.884,485.9,445.61,654.307,487.8c125.748,31.5,166.471-111.231,305.8-57.683,129.48,49.756,176.677-127.779,83.375-183.938C920.306,172.036,781.71,287.4,689.675,149.67,608.482,28.159,426.6-212.717,301.078,88.838Z" transform="translate(352.571 269.395)" fill="none" stroke="#0391f7" stroke-linecap="round" stroke-linejoin="round" stroke-width="4"/>
      <path id="Path_26" data-name="Path 26" d="M303.5,89.72C257.9,199.293,19.54,180.947,9.143,283.884c-12.534,124.039,181.838,114.94,264.9,88.868,206.5-64.807,218.767,82.414,391.273,125.628,128.806,32.269,170.52-113.939,313.238-59.086,132.627,50.966,180.971-130.886,85.4-188.409-126.173-75.943-268.138,42.23-362.407-98.854C618.381,27.564,432.069-219.167,303.5,89.72Z" transform="translate(344.088 264.464)" fill="none" stroke="#0391f7" stroke-linecap="round" stroke-linejoin="round" stroke-width="4"/>
      <path id="Path_27" data-name="Path 27" d="M305.925,90.6c-46.689,112.173-290.7,93.39-301.346,198.772C-8.252,416.357,190.734,407.042,275.767,380.353c211.394-66.348,223.96,84.368,400.56,128.607C808.189,542,850.893,392.319,997,448.472c135.777,52.176,185.268-133.994,87.43-192.883-129.166-77.746-274.5,43.234-371.009-101.2C628.277,26.97,437.542-225.618,305.925,90.6Z" transform="translate(335.604 259.533)" fill="none" stroke="#0391f7" stroke-linecap="round" stroke-linejoin="round" stroke-width="4"/>
      <path id="Path_28" data-name="Path 28" d="M308.349,91.484C260.575,206.258,10.905,187.039.015,294.864c-13.13,129.928,190.469,120.4,277.477,93.088,216.3-67.883,229.153,86.326,409.847,131.591,134.918,33.8,178.614-119.345,328.106-61.891,138.921,53.386,189.562-137.1,89.455-197.354-132.162-79.549-280.866,44.236-379.612-103.544C638.172,26.377,443.018-232.069,308.349,91.484Z" transform="translate(327.121 254.603)" fill="none" stroke="#0391f7" stroke-linecap="round" stroke-linejoin="round" stroke-width="4"/>
      <path id="Path_29" data-name="Path 29" d="M310.772,92.365C261.917,209.739,6.589,190.086-4.549,300.353c-13.427,132.872,194.786,123.126,283.762,95.2,221.2-69.423,234.345,88.28,419.134,134.57,137.977,34.566,182.663-122.05,335.542-63.292,142.071,54.6,193.859-140.208,91.481-201.825-135.155-81.353-287.229,45.237-388.211-105.893C648.068,25.783,448.492-238.518,310.772,92.365Z" transform="translate(318.637 249.673)" fill="none" stroke="#0391f7" stroke-linecap="round" stroke-linejoin="round" stroke-width="4"/>
      <path id="Path_30" data-name="Path 30" d="M313.192,93.244C263.256,213.22,2.271,193.134-9.114,305.846c-13.724,135.814,199.1,125.851,290.051,97.3,226.1-70.961,239.538,90.237,428.421,137.554,141.032,35.331,186.709-124.755,342.977-64.7,145.218,55.808,198.15-143.312,93.507-206.3-138.151-83.153-293.594,46.241-396.813-108.238C657.964,25.19,453.965-244.968,313.192,93.244Z" transform="translate(310.154 244.742)" fill="none" stroke="#0391f7" stroke-linecap="round" stroke-linejoin="round" stroke-width="4"/>
      <path id="Path_31" data-name="Path 31" d="M315.616,94.127C264.6,216.7-2.045,196.179-13.678,311.336c-14.02,138.758,203.42,128.581,296.339,99.413,231-72.5,244.728,92.195,437.708,140.536,144.091,36.1,190.755-127.46,350.41-66.1,148.368,57.018,202.447-146.419,95.536-210.767C1025.171,189.46,866.358,321.661,760.9,163.833,667.862,24.595,459.438-251.418,315.616,94.127Z" transform="translate(301.67 239.811)" fill="none" stroke="#0391f7" stroke-linecap="round" stroke-linejoin="round" stroke-width="4"/>
      <path id="Path_32" data-name="Path 32" d="M318.039,95.008c-52.1,125.177-324.4,104.218-336.281,221.817-14.317,141.7,207.734,131.309,302.627,101.524,235.9-74.04,249.921,94.149,446.992,143.515,147.15,36.866,194.8-130.162,357.845-67.5,151.515,58.228,206.744-149.526,97.564-215.24C1042.648,192.364,880.465,327.371,772.769,166.2,677.758,24,464.914-257.869,318.039,95.008Z" transform="translate(293.187 234.881)" fill="none" stroke="#0391f7" stroke-linecap="round" stroke-linejoin="round" stroke-width="4"/>
      <path id="Path_33" data-name="Path 33" d="M320.462,95.889C267.276,223.669-10.68,202.273-22.806,322.314-37.423,466.962,189.245,456.351,286.107,425.947c240.8-75.575,255.116,96.106,456.282,146.5,150.205,37.63,198.852-132.867,365.28-68.9,154.662,59.434,211.038-152.633,99.59-219.711-147.135-88.562-312.688,49.246-422.62-115.277C687.654,23.407,470.388-264.318,320.462,95.889Z" transform="translate(284.703 229.951)" fill="none" stroke="#0391f7" stroke-linecap="round" stroke-linejoin="round" stroke-width="4"/>
      <path id="Path_34" data-name="Path 34" d="M322.883,96.771C268.618,227.15-15,205.32-27.37,327.8-42.283,475.4,189,464.568,287.832,433.546c245.7-77.113,260.306,98.064,465.569,149.481,153.261,38.4,202.9-135.571,372.713-70.305,157.812,60.644,215.335-155.74,101.619-224.185-150.131-90.363-319.053,50.25-431.223-117.622C697.55,22.814,475.861-270.769,322.883,96.771Z" transform="translate(276.22 225.021)" fill="none" stroke="#0391f7" stroke-linecap="round" stroke-linejoin="round" stroke-width="4"/>
      <path id="Path_35" data-name="Path 35" d="M325.306,97.653C269.957,230.631-19.314,208.365-31.934,333.294c-15.21,150.533,220.681,139.492,321.49,107.853,250.6-78.653,265.5,100.015,474.854,152.462,156.32,39.163,206.946-138.276,380.151-71.709,160.956,61.854,219.629-158.845,103.645-228.656C1095.078,201.078,922.789,344.5,808.38,173.274,707.446,22.221,481.338-277.219,325.306,97.653Z" transform="translate(267.737 220.09)" fill="none" stroke="#0391f7" stroke-linecap="round" stroke-linejoin="round" stroke-width="4"/>
      <path id="Path_36" data-name="Path 36" d="M327.729,98.535C271.3,234.115-23.63,211.412-36.5,338.783c-15.507,153.478,225,142.222,327.775,109.961,255.507-80.191,270.692,101.972,484.143,155.444C934.8,644.116,986.413,463.207,1163,531.078c164.106,63.064,223.926-161.952,105.67-233.13C1112.557,203.979,936.9,350.2,820.25,175.633,717.344,21.625,486.811-283.668,327.729,98.535Z" transform="translate(259.253 215.16)" fill="none" stroke="#0391f7" stroke-linecap="round" stroke-linejoin="round" stroke-width="4"/>
      <path id="Path_37" data-name="Path 37" d="M330.153,99.414C272.639,237.6-27.949,214.46-41.062,344.273-56.869,500.7,188.253,489.223,293,456.343c260.406-81.726,275.885,103.93,493.431,158.428,162.431,40.692,215.038-143.686,395.016-74.513,167.256,64.273,228.223-165.059,107.7-237.6C1130.034,206.885,951,355.914,832.12,178,727.24,21.032,492.284-290.118,330.153,99.414Z" transform="translate(250.77 210.229)" fill="none" stroke="#0391f7" stroke-linecap="round" stroke-linejoin="round" stroke-width="4"/>
      <path id="Path_38" data-name="Path 38" d="M332.576,100.3c-58.6,140.781-364.841,117.211-378.2,249.467-16.1,159.367,233.632,147.677,340.352,114.181C560.034,380.677,575.8,569.828,797.441,625.351c165.492,41.459,219.086-146.388,402.454-75.914,170.4,65.483,232.516-168.166,109.724-242.075-162.109-97.573-344.506,54.262-465.629-127.006C737.136,20.439,497.761-296.569,332.576,100.3Z" transform="translate(242.286 205.298)" fill="none" stroke="#0391f7" stroke-linecap="round" stroke-linejoin="round" stroke-width="4"/>
      <path id="Path_39" data-name="Path 39" d="M335,101.178C275.32,244.561-36.583,220.552-50.19,355.253c-16.4,162.311,237.946,150.4,346.64,116.29,270.207-84.8,286.267,107.841,512,164.391,168.548,42.224,223.135-149.1,409.887-77.318,173.55,66.693,236.81-171.273,111.753-246.546-165.1-99.376-350.872,55.263-474.231-129.354C747.032,19.845,503.234-303.02,335,101.178Z" transform="translate(233.803 200.368)" fill="none" stroke="#0391f7" stroke-linecap="round" stroke-linejoin="round" stroke-width="4"/>
      <path id="Path_40" data-name="Path 40" d="M337.42,102.059C276.659,248.042-40.9,223.6-54.754,360.742-71.451,526,187.508,513.877,298.172,479.143c275.111-86.345,291.463,109.8,521.292,167.37,171.6,42.992,227.181-151.8,417.322-78.722,176.7,67.906,241.1-174.377,113.779-251.016-168.1-101.179-357.237,56.265-482.834-131.7C756.928,19.251,508.707-309.468,337.42,102.059Z" transform="translate(225.319 195.438)" fill="none" stroke="#0391f7" stroke-linecap="round" stroke-linejoin="round" stroke-width="4"/>
      <path id="Path_41" data-name="Path 41" d="M339.843,102.941C278,251.523-45.218,226.646-59.319,366.235-76.312,534.432,187.261,522.1,299.9,486.741c280.01-87.881,296.653,111.753,530.576,170.352,174.663,43.759,231.23-154.5,424.757-80.123,179.847,69.112,245.4-177.484,115.807-255.487C1199.943,218.5,1007.434,378.749,879.6,187.435,766.826,18.656,514.18-315.919,339.843,102.941Z" transform="translate(216.836 190.507)" fill="none" stroke="#0391f7" stroke-linecap="round" stroke-linejoin="round" stroke-width="4"/>
      <path id="Path_42" data-name="Path 42" d="M342.267,103.823c-62.927,151.184-391.8,125.871-406.149,267.9-17.293,171.142,250.9,158.588,365.5,122.615,284.912-89.418,301.846,113.71,539.863,173.336,177.718,44.524,235.275-157.207,432.19-81.527,183,70.322,249.7-180.592,117.836-259.958C1217.42,221.405,1021.544,384.458,891.471,189.8,776.722,18.062,519.657-322.37,342.267,103.823Z" transform="translate(208.352 185.577)" fill="none" stroke="#0391f7" stroke-linecap="round" stroke-linejoin="round" stroke-width="4"/>
      <path id="Path_43" data-name="Path 43" d="M344.687,104.7C280.679,258.488-53.853,232.738-68.447,377.214-86.036,551.3,186.764,538.529,303.345,501.94c289.811-90.959,307.038,115.665,549.15,176.315,180.774,45.291,239.321-159.909,439.625-82.927,186.141,71.532,253.992-183.7,119.859-264.432C1234.9,224.31,1035.651,390.167,903.341,192.157,786.618,17.469,525.13-328.818,344.687,104.7Z" transform="translate(199.869 180.647)" fill="none" stroke="#0391f7" stroke-linecap="round" stroke-linejoin="round" stroke-width="4"/>
      <path id="Path_44" data-name="Path 44" d="M347.109,105.584C282.016,261.972-58.17,235.785-73.01,382.7-90.9,559.734,186.515,546.75,305.064,509.539,599.78,417.042,617.3,627.161,863.5,688.838c183.836,46.053,243.37-162.617,447.061-84.331,189.291,72.742,258.289-186.806,121.888-268.9-180.075-108.389-382.693,60.273-517.24-141.087C796.512,16.876,530.6-335.269,347.109,105.584Z" transform="translate(191.387 175.716)" fill="none" stroke="#0391f7" stroke-linecap="round" stroke-linejoin="round" stroke-width="4"/>
      <path id="Path_45" data-name="Path 45" d="M349.532,106.466C283.358,265.453-62.486,238.833-77.574,388.194-95.76,568.169,186.268,554.968,306.789,517.137,606.4,423.105,624.213,636.717,874.513,699.418c186.891,46.821,247.419-165.319,454.5-85.732,192.438,73.951,262.583-189.913,123.913-273.377-183.071-110.192-389.058,61.278-525.843-143.432C806.408,16.28,536.078-341.719,349.532,106.466Z" transform="translate(182.904 170.785)" fill="none" stroke="#0391f7" stroke-linecap="round" stroke-linejoin="round" stroke-width="4"/>
      <path id="Path_46" data-name="Path 46" d="M351.956,107.348C284.7,268.934-66.8,241.88-82.138,393.683c-18.486,182.92,268.155,169.5,390.651,131.055C613.029,429.165,631.127,646.272,885.524,710c189.947,47.588,251.464-168.023,461.929-87.133,195.585,75.161,266.88-193.02,125.942-277.848-186.067-112-395.421,62.276-534.445-145.777C816.306,15.687,541.552-348.17,351.956,107.348Z" transform="translate(174.42 165.855)" fill="none" stroke="#0391f7" stroke-linecap="round" stroke-linejoin="round" stroke-width="4"/>
      <path id="Path_47" data-name="Path 47" d="M354.379,108.229C286.04,272.417-71.121,244.924-86.7,399.172-105.484,585.037,185.771,571.4,310.234,532.336c309.418-97.111,327.81,123.491,586.3,188.244,193.006,48.353,255.513-170.728,469.367-88.537,198.732,76.371,271.171-196.127,127.968-282.321C1304.808,235.925,1092.081,413,950.823,201.6,826.2,15.093,547.025-354.619,354.379,108.229Z" transform="translate(165.937 160.925)" fill="none" stroke="#0391f7" stroke-linecap="round" stroke-linejoin="round" stroke-width="4"/>
      <path id="Path_48" data-name="Path 48" d="M356.8,109.111C287.379,275.9-75.439,247.972-91.266,404.662c-19.079,188.809,276.789,174.959,403.225,135.272,314.32-98.648,333,125.448,595.586,191.225,196.062,49.12,259.559-173.43,476.8-89.938,201.882,77.581,275.468-199.231,130-286.792-192.056-115.6-408.152,64.282-551.65-150.471C836.1,14.5,552.5-361.069,356.8,109.111Z" transform="translate(157.453 155.995)" fill="none" stroke="#0391f7" stroke-linecap="round" stroke-linejoin="round" stroke-width="4"/>
      <path id="Path_49" data-name="Path 49" d="M359.222,109.992C288.718,279.38-79.755,251.019-95.83,410.152c-19.376,191.753,281.106,177.687,409.513,137.383C632.9,447.346,651.875,674.938,918.556,741.742c199.117,49.885,263.6-176.138,484.232-91.344,205.032,78.79,279.765-202.336,132.025-291.263-195.052-117.4-414.515,65.286-560.249-152.816C845.994,13.906,557.974-367.52,359.222,109.992Z" transform="translate(148.97 151.064)" fill="none" stroke="#0391f7" stroke-linecap="round" stroke-linejoin="round" stroke-width="4"/>
      <path id="Path_50" data-name="Path 50" d="M361.646,110.872c-71.586,171.992-445.72,143.195-462.04,304.77-19.673,194.695,285.42,180.415,415.8,139.492,324.12-101.724,343.385,129.36,614.157,197.188,202.176,50.65,267.653-178.84,491.67-92.745,208.176,80,284.059-205.443,134.048-295.734C1357.238,244.638,1134.4,430.131,986.434,208.679,855.89,13.311,563.448-373.97,361.646,110.872Z" transform="translate(140.486 146.133)" fill="none" stroke="#0391f7" stroke-linecap="round" stroke-linejoin="round" stroke-width="4"/>
      <path id="Path_51" data-name="Path 51" d="M364.069,111.753C291.4,286.345-88.39,257.111-104.958,421.131c-19.972,197.639,289.737,183.142,422.087,141.6C646.151,459.469,665.707,694.049,940.576,762.9c205.234,51.414,271.7-181.547,499.1-94.149,211.326,81.21,288.356-208.55,136.076-300.205C1374.717,247.542,1148.512,435.84,998.3,211.041,865.785,12.717,568.924-380.419,364.069,111.753Z" transform="translate(132.003 141.203)" fill="none" stroke="#0391f7" stroke-linecap="round" stroke-linejoin="round" stroke-width="4"/>
      <path id="Path_52" data-name="Path 52" d="M366.49,112.635c-73.752,177.193-459.2,147.523-476.012,313.986C-129.791,627.2,184.531,612.494,318.853,570.333,652.777,465.53,672.624,703.6,951.584,773.484c208.293,52.182,275.751-184.249,506.541-95.55,214.473,82.42,292.65-211.657,138.1-304.679-204.033-122.809-433.608,68.294-586.053-159.855C875.684,12.124,574.4-386.87,366.49,112.635Z" transform="translate(123.519 136.273)" fill="none" stroke="#0391f7" stroke-linecap="round" stroke-linejoin="round" stroke-width="4"/>
      <path id="Path_53" data-name="Path 53" d="M368.913,113.517c-74.833,179.793-465.937,149.689-483,318.594-20.566,203.528,298.371,188.6,434.664,145.82C659.4,471.59,679.541,713.157,962.6,784.064c211.349,52.949,279.8-186.951,513.973-96.951,217.62,83.629,296.947-214.764,140.131-309.15-207.029-124.612-439.971,69.3-594.655-162.2C885.58,11.53,579.871-393.32,368.913,113.517Z" transform="translate(115.036 131.342)" fill="none" stroke="#0391f7" stroke-linecap="round" stroke-linejoin="round" stroke-width="4"/>
    </g>
  </g>
</svg>
