<svg xmlns="http://www.w3.org/2000/svg" width="99.641" height="106.227" viewBox="0 0 99.641 106.227">
  <path id="sdk-file-icon" d="M21.932,49.28h56.08v-17H60.143a9.362,9.362,0,0,1-5.68-2.248,8.083,8.083,0,0,1-1.98-5.334V6.609H7.037a.5.5,0,0,0-.354.156.38.38,0,0,0-.164.363V99.144a.579.579,0,0,0,.156.354.424.424,0,0,0,.354.156H77.485c.156,0,.147-.078.233-.156s.285-.242.285-.354V89.5H21.932A6.562,6.562,0,0,1,15.4,83V55.8a6.553,6.553,0,0,1,6.536-6.518ZM25.71,72.9l5.827-.38a4.8,4.8,0,0,0,.778,2.256,3.181,3.181,0,0,0,2.706,1.305,2.9,2.9,0,0,0,2.023-.648,1.911,1.911,0,0,0,0-2.948,7.677,7.677,0,0,0-3.138-1.2,13.106,13.106,0,0,1-5.758-2.524,5.187,5.187,0,0,1-1.729-4.02,5.636,5.636,0,0,1,.864-3.017,5.956,5.956,0,0,1,2.671-2.248,11.973,11.973,0,0,1,4.884-.813,9.625,9.625,0,0,1,5.809,1.487,6.492,6.492,0,0,1,2.438,4.694l-5.775.354a3.337,3.337,0,0,0-1-2.083,2.991,2.991,0,0,0-2.04-.648,2.4,2.4,0,0,0-1.608.475,1.5,1.5,0,0,0-.545,1.158,1.184,1.184,0,0,0,.441.864,4.807,4.807,0,0,0,2.049.769,24.656,24.656,0,0,1,5.758,1.841A6.138,6.138,0,0,1,42.9,69.881a6.051,6.051,0,0,1,.8,3.078,6.864,6.864,0,0,1-1.055,3.691,6.7,6.7,0,0,1-2.957,2.593,11.472,11.472,0,0,1-4.781.865c-3.38,0-5.714-.683-7.02-2.049a8.23,8.23,0,0,1-2.2-5.187ZM46.89,58.963h9.129a10.538,10.538,0,0,1,4.322.769,7.236,7.236,0,0,1,2.766,2.2,9.345,9.345,0,0,1,1.573,3.346,15.976,15.976,0,0,1,.493,4.029,14.627,14.627,0,0,1-.726,5.187,8.645,8.645,0,0,1-2.014,3.078,6.553,6.553,0,0,1-2.784,1.651,13.607,13.607,0,0,1-3.665.571H46.89Zm6.138,4.711V75.042h1.513a6.181,6.181,0,0,0,2.74-.441,3.034,3.034,0,0,0,1.279-1.565,10.106,10.106,0,0,0,.467-3.614c0-2.2-.346-3.709-1.037-4.53a4.262,4.262,0,0,0-3.458-1.219Zm15.405-4.711h6.129V66.83L81,58.963h8.161l-7.253,7.78L89.5,79.711H81.945l-4.193-8.472L74.563,74.7v5.075H68.433ZM84.521,49.28h8.584a6.553,6.553,0,0,1,6.536,6.527V83a6.562,6.562,0,0,1-6.536,6.536H84.521v11.714a5.014,5.014,0,0,1-5.014,5.014H5.014A5.014,5.014,0,0,1,0,101.245V5.062A5.014,5.014,0,0,1,5.014.048H55.768a.994.994,0,0,1,.354,0,2.4,2.4,0,0,1,1.522.6h.069a.778.778,0,0,1,.207.112L83.856,27a2.447,2.447,0,0,1,.761,1.729,3.251,3.251,0,0,1-.078.562V49.28ZM58.353,24.21V7.785l18.526,18.76H60.661a2.429,2.429,0,0,1-1.634-.674,2.351,2.351,0,0,1-.674-1.66Z" transform="translate(0 -0.032)" fill="#463b6b" fill-rule="evenodd"/>
</svg>
