<svg xmlns="http://www.w3.org/2000/svg" width="106.611" height="138" viewBox="0 0 106.611 138">
  <g id="fingerprint-svgrepo-com" transform="translate(-52.656)">
    <path id="Path_54603" data-name="Path 54603" d="M175.945,240.8V231a7,7,0,0,0-14.009,0v8.844A43,43,0,0,1,150.88,268.66l-9.83,10.923a2.236,2.236,0,1,0,3.323,2.991l9.83-10.923a47.467,47.467,0,0,0,12.2-31.8V231a2.533,2.533,0,0,1,5.067,0v9.8a52.5,52.5,0,0,1-13.681,35.387l-9.582,10.54a2.235,2.235,0,1,0,3.308,3.007l9.582-10.54A56.962,56.962,0,0,0,175.945,240.8Z" transform="translate(-61.644 -157.235)" fill="#463b6b"/>
    <path id="Path_54604" data-name="Path 54604" d="M175.479,208.542a16.542,16.542,0,1,0-33.084,0v8.844a33.478,33.478,0,0,1-8.608,22.431l-6.989,7.765a2.236,2.236,0,1,0,3.323,2.991l6.989-7.765a37.943,37.943,0,0,0,9.755-25.422v-8.844a12.071,12.071,0,1,1,24.143,0v9.8a62.018,62.018,0,0,1-16.161,41.8l-8.085,8.894a2.235,2.235,0,1,0,3.308,3.007l8.085-8.894a66.481,66.481,0,0,0,17.324-44.81Z" transform="translate(-51.641 -134.773)" fill="#463b6b"/>
    <path id="Path_54605" data-name="Path 54605" d="M169.959,186.08a26.08,26.08,0,1,0-52.16,0v8.844a23.955,23.955,0,0,1-6.159,16.051l-6.293,6.992a2.236,2.236,0,1,0,3.323,2.991l6.293-6.992a28.419,28.419,0,0,0,7.307-19.042V186.08a21.609,21.609,0,1,1,43.218,0v9.8a71.536,71.536,0,0,1-18.642,48.219l-2.238,2.461a2.235,2.235,0,1,0,3.308,3.007l2.237-2.461a76,76,0,0,0,19.8-51.226v-9.8Z" transform="translate(-36.584 -112.311)" fill="#463b6b"/>
    <path id="Path_54606" data-name="Path 54606" d="M116.476,164.418a2.235,2.235,0,1,0,4.471,0,31.2,31.2,0,0,1,26.7-30.83,2.235,2.235,0,0,0-.636-4.425,35.67,35.67,0,0,0-30.53,35.255Z" transform="translate(-44.798 -90.65)" fill="#463b6b"/>
    <path id="Path_54607" data-name="Path 54607" d="M97.675,271.907a2.235,2.235,0,1,0-4.471,0,14.432,14.432,0,0,1-3.711,9.67l-5.6,6.22a2.235,2.235,0,0,0,3.323,2.991l5.6-6.219A18.9,18.9,0,0,0,97.675,271.907Z" transform="translate(-21.526 -189.295)" fill="#463b6b"/>
    <path id="Path_54608" data-name="Path 54608" d="M326.769,343.951a2.237,2.237,0,0,0-2.729,1.6,81.177,81.177,0,0,1-3.052,9.317,2.236,2.236,0,1,0,4.157,1.647,85.723,85.723,0,0,0,3.221-9.832A2.236,2.236,0,0,0,326.769,343.951Z" transform="translate(-188.243 -241.383)" fill="#463b6b"/>
    <path id="Path_54609" data-name="Path 54609" d="M307.007,157.282a2.235,2.235,0,1,0-2.989,3.325,31.2,31.2,0,0,1,10.346,23.163v9.8A81.863,81.863,0,0,1,313.6,204.7a2.235,2.235,0,1,0,4.429.61,86.363,86.363,0,0,0,.8-11.745v-9.8A35.677,35.677,0,0,0,307.007,157.282Z" transform="translate(-175.921 -110.001)" fill="#463b6b"/>
    <path id="Path_54610" data-name="Path 54610" d="M255.281,136.274a2.235,2.235,0,0,0,1.922-4.037,35.324,35.324,0,0,0-10.174-3.075,2.235,2.235,0,1,0-.636,4.425A30.871,30.871,0,0,1,255.281,136.274Z" transform="translate(-134.646 -90.649)" fill="#463b6b"/>
    <path id="Path_54611" data-name="Path 54611" d="M225.079,96c-.836,0-1.682.023-2.515.069a2.235,2.235,0,1,0,.246,4.464c.751-.041,1.514-.062,2.268-.062a40.731,40.731,0,0,1,40.685,40.685v9.8a2.235,2.235,0,0,0,4.471,0v-9.8A45.206,45.206,0,0,0,225.079,96Z" transform="translate(-117.783 -67.387)" fill="#463b6b"/>
    <path id="Path_54612" data-name="Path 54612" d="M148.7,111.9a2.226,2.226,0,0,0,1.274-.4,40.448,40.448,0,0,1,12.141-5.74,2.236,2.236,0,1,0-1.213-4.3,44.912,44.912,0,0,0-13.48,6.372A2.236,2.236,0,0,0,148.7,111.9Z" transform="translate(-65.848 -71.158)" fill="#463b6b"/>
    <path id="Path_54613" data-name="Path 54613" d="M78.132,181.791v-8.844a40.509,40.509,0,0,1,11.089-27.888,2.235,2.235,0,1,0-3.253-3.067,44.963,44.963,0,0,0-12.307,30.955v8.844A4.909,4.909,0,0,1,72.4,185.08l-2.756,3.063a2.236,2.236,0,0,0,3.323,2.991l2.756-3.063A9.375,9.375,0,0,0,78.132,181.791Z" transform="translate(-11.521 -99.178)" fill="#463b6b"/>
    <path id="Path_54614" data-name="Path 54614" d="M373.535,141.324a54.391,54.391,0,0,0-11.581-19.565,2.236,2.236,0,1,0-3.292,3.025A49.947,49.947,0,0,1,369.3,142.75a2.235,2.235,0,0,0,4.237-1.426Z" transform="translate(-214.385 -84.96)" fill="#463b6b"/>
    <path id="Path_54615" data-name="Path 54615" d="M288.277,73.537a2.235,2.235,0,1,0-1.447,4.23,50.076,50.076,0,0,1,13.755,7.263,2.236,2.236,0,0,0,2.674-3.583A54.551,54.551,0,0,0,288.277,73.537Z" transform="translate(-163.315 -51.534)" fill="#463b6b"/>
    <path id="Path_54616" data-name="Path 54616" d="M72.562,82.452A49.971,49.971,0,0,1,107.3,68.471a50.689,50.689,0,0,1,7.212.516,2.235,2.235,0,0,0,.639-4.425A55.19,55.19,0,0,0,107.3,64a54.758,54.758,0,0,0-54.637,52.209,2.235,2.235,0,0,0,2.133,2.333l.1,0a2.236,2.236,0,0,0,2.232-2.135A49.972,49.972,0,0,1,72.562,82.452Z" transform="translate(0 -44.924)" fill="#463b6b"/>
    <path id="Path_54617" data-name="Path 54617" d="M197.055,32a64.326,64.326,0,0,0-14.806,1.722,2.235,2.235,0,1,0,1.03,4.35,59.883,59.883,0,0,1,13.775-1.6,59.251,59.251,0,0,1,43.084,18.389,2.235,2.235,0,1,0,3.224-3.1A64.057,64.057,0,0,0,197.055,32Z" transform="translate(-89.759 -22.462)" fill="#463b6b"/>
    <path id="Path_54618" data-name="Path 54618" d="M65.488,70.9a2.235,2.235,0,0,0,3.138-.382A60.147,60.147,0,0,1,92.881,52.061a2.235,2.235,0,0,0-1.713-4.13A64.627,64.627,0,0,0,65.106,67.764,2.236,2.236,0,0,0,65.488,70.9Z" transform="translate(-8.405 -33.525)" fill="#463b6b"/>
    <path id="Path_54619" data-name="Path 54619" d="M126.714,11.542a2.222,2.222,0,0,0,.97-.223,68.5,68.5,0,0,1,30.026-6.848,69.383,69.383,0,0,1,16.215,1.915,2.235,2.235,0,1,0,1.046-4.347A73.857,73.857,0,0,0,157.709,0,72.933,72.933,0,0,0,125.74,7.293a2.236,2.236,0,0,0,.973,4.249Z" transform="translate(-50.414)" fill="#463b6b"/>
    <path id="Path_54620" data-name="Path 54620" d="M318.405,21.226a69.244,69.244,0,0,1,6.78,3.136,2.235,2.235,0,0,0,2.093-3.95,73.754,73.754,0,0,0-7.219-3.339,2.235,2.235,0,1,0-1.654,4.153Z" transform="translate(-185.552 -11.872)" fill="#463b6b"/>
  </g>
</svg>
