<svg xmlns="http://www.w3.org/2000/svg" width="29.346" height="29.342" viewBox="0 0 29.346 29.342">
  <g id="Group_53" data-name="Group 53" transform="translate(0 0)">
    <path id="Path_191" data-name="Path 191" d="M142.566,421.528h2.947v-6.843h1.754l.521-2.471h-2.275v-1.407c0-.584.117-.814.678-.814h1.6v-2.562h-2.041c-2.193,0-3.18.965-3.18,2.811v1.972h-1.533v2.5h1.533Z" transform="translate(-129.738 -399.808)" fill="#fff"/>
    <g id="Group_52" data-name="Group 52">
      <path id="Path_192" data-name="Path 192" d="M152.124,434.357A14.671,14.671,0,1,1,166.8,419.686,14.688,14.688,0,0,1,152.124,434.357Zm0-27.651a12.98,12.98,0,1,0,12.98,12.98A12.992,12.992,0,0,0,152.124,406.706Z" transform="translate(-137.453 -405.015)" fill="#fff"/>
    </g>
  </g>
</svg>
