<svg xmlns="http://www.w3.org/2000/svg" width="22.588" height="22.588" viewBox="0 0 22.588 22.588">
  <path id="Path_63" data-name="Path 63" d="M20.014,1.163H3.784A3.179,3.179,0,0,0,.6,4.342v16.23a3.179,3.179,0,0,0,3.179,3.179H11.17V15.506H8.378V12.29H11.17V9.921a4.225,4.225,0,0,1,1.114-3.127,4.082,4.082,0,0,1,3.021-1.115,13.173,13.173,0,0,1,2.475.143V8.685h-1.7a1.612,1.612,0,0,0-1.255.39,1.747,1.747,0,0,0-.335,1.166v2.05h3.181l-.424,3.216H14.493v8.245h5.52a3.179,3.179,0,0,0,3.179-3.179V4.342a3.179,3.179,0,0,0-3.179-3.179Z" transform="translate(-0.605 -1.163)" fill="#fff"/>
</svg>
