<svg xmlns="http://www.w3.org/2000/svg" xmlns:xlink="http://www.w3.org/1999/xlink" width="788" height="750" viewBox="0 0 788 750">
  <defs>
    <clipPath id="clip-Artboard_1">
      <rect width="788" height="750"/>
    </clipPath>
  </defs>
  <g id="Artboard_1" data-name="Artboard – 1" clip-path="url(#clip-Artboard_1)">
    <rect width="788" height="750" fill="rgba(255,255,255,0)"/>
    <g id="Group_21108" data-name="Group 21108" transform="translate(-141.867 97.678)">
      <g id="Group_8" data-name="Group 8" transform="translate(146.402 -94.61)">
        <g id="triangle36" transform="translate(688.641 2.35)">
          <path id="Path_143" data-name="Path 143" d="M642.933-17.1,546.589-70.345,572.569-93.6l70.489,51.822.005-1L572.784-94.447a.4.4,0,0,0-.509.024L545.628-70.567a.4.4,0,0,0-.131.346.4.4,0,0,0,.2.308L642.928-16.18Z" transform="translate(-545.495 94.526)" fill="#c4c4c4"/>
        </g>
        <g id="triangle36-2" data-name="triangle36" transform="translate(688.64 26.205)">
          <path id="Path_144" data-name="Path 144" d="M642.562,45.778,547.383-78.964l95.545,52.805.005-.918L546.092-80.6a.4.4,0,0,0-.5.088.4.4,0,0,0-.016.509L642.555,47.1Z" transform="translate(-545.494 80.649)" fill="#c4c4c4"/>
        </g>
        <g id="triangle36-3" data-name="triangle36" transform="translate(390.956 688.73)">
          <path id="Path_145" data-name="Path 145" d="M374.272,364.159l129.605-58.437,12.7,59.164.825,0-12.845-59.826a.4.4,0,0,0-.559-.282L372.329,364.148Z" transform="translate(-372.329 -304.745)" fill="#c4c4c4"/>
        </g>
        <g id="triangle36-4" data-name="triangle36" transform="translate(697.775 722.541)">
          <path id="Path_146" data-name="Path 146" d="M635.832,324.413l-85.024,27.159,2.611.013,82.409-26.324Z" transform="translate(-550.808 -324.413)" fill="#c4c4c4"/>
        </g>
        <g id="triangle36-5" data-name="triangle36" transform="translate(715.288)">
          <path id="Path_147" data-name="Path 147" d="M631.918-41.8,562.575-92.775l69.614-2.31.005-.808-70.809,2.35a.408.408,0,0,0-.373.284.405.405,0,0,0,.148.445L631.913-40.8Z" transform="translate(-560.995 95.893)" fill="#c4c4c4"/>
        </g>
        <g id="triangle36-6" data-name="triangle36" transform="translate(689.167 292.112)">
          <path id="Path_148" data-name="Path 148" d="M641.362,126.43,547.521,120.9l75.818-45.975L641.553,89.1l.005-1.018L623.616,74.114a.4.4,0,0,0-.457-.026l-77.164,46.79a.4.4,0,0,0,.186.748l95.179,5.611Z" transform="translate(-545.8 -74.03)" fill="#c4c4c4"/>
        </g>
        <g id="triangle36-7" data-name="triangle36" transform="translate(87.407 718.582)">
          <path id="Path_149" data-name="Path 149" d="M196.686,350.117l15.458-26.364,3.115,26.458.813.005L212.8,322.466a.4.4,0,0,0-.318-.347.407.407,0,0,0-.432.191l-16.3,27.8Z" transform="translate(-195.753 -322.11)" fill="#c4c4c4"/>
        </g>
        <g id="triangle36-8" data-name="triangle36" transform="translate(679.701 696.001)">
          <path id="Path_150" data-name="Path 150" d="M635.832,324.413l-85.024,27.159,2.61.013,82.41-26.324Z" transform="translate(-532.734 -297.873)" fill="#c4c4c4"/>
          <path id="Path_151" data-name="Path 151" d="M643.415,331.128l-89.141-22.143a.411.411,0,0,0-.488.294l-13.491,53.3.832,0,13.342-52.719L643.41,331.96Z" transform="translate(-540.294 -308.974)" fill="#c4c4c4"/>
        </g>
        <g id="triangle36-9" data-name="triangle36" transform="translate(696.572 517.974)">
          <path id="Path_152" data-name="Path 152" d="M637.3,220.919,588.6,248.87l-36.781-9.828,85.557-32.761.005-.866-87.013,33.319a.4.4,0,0,0,.04.767l38.145,10.191a.427.427,0,0,0,.1.014.4.4,0,0,0,.2-.053l48.439-27.8Z" transform="translate(-550.108 -205.415)" fill="#c4c4c4"/>
        </g>
        <g id="triangle36-10" data-name="triangle36" transform="translate(522.389 688.73)">
          <path id="Path_153" data-name="Path 153" d="M462.426,364.889l-12.692-59.118,49.195,17.454-21.251,41.741.9.005,21.275-41.789a.4.4,0,0,0,.016-.333.41.41,0,0,0-.239-.23l-50.309-17.849a.4.4,0,0,0-.529.464L461.6,364.886Z" transform="translate(-448.785 -304.745)" fill="#c4c4c4"/>
        </g>
        <g id="triangle36-11" data-name="triangle36" transform="translate(551.282 706.578)">
          <path id="Path_154" data-name="Path 154" d="M466.495,357.506l20.952-41.157,26.068,41.4.956.005-26.718-42.434a.376.376,0,0,0-.361-.187.4.4,0,0,0-.34.22L465.592,357.5Z" transform="translate(-465.592 -315.127)" fill="#c4c4c4"/>
        </g>
        <g id="triangle36-12" data-name="triangle36" transform="translate(572.697 706.58)">
          <path id="Path_155" data-name="Path 155" d="M504.557,357.746l.956.005-25.986-41.27,88.813,41.59,1.924.01-91.639-42.913a.4.4,0,0,0-.514.579Z" transform="translate(-478.049 -315.128)" fill="#c4c4c4"/>
        </g>
        <g id="triangle36-13" data-name="triangle36" transform="translate(572.697 696.001)">
          <path id="Path_156" data-name="Path 156" d="M478.281,320.323,568.339,362.5l1.925.01-90.281-42.277,118.422-10.4-13.352,52.754.832,0,13.441-53.109a.409.409,0,0,0-.084-.361.416.416,0,0,0-.342-.139L478.419,319.556a.4.4,0,0,0-.138.767Z" transform="translate(-478.049 -308.974)" fill="#c4c4c4"/>
        </g>
        <g id="triangle36-14" data-name="triangle36" transform="translate(103.654 718.582)">
          <path id="Path_157" data-name="Path 157" d="M209.276,350.217l-3.168-26.9,41.9,27.1,1.5.007-43.677-28.246a.4.4,0,0,0-.431-.005.4.4,0,0,0-.187.39l3.258,27.651Z" transform="translate(-205.204 -322.11)" fill="#c4c4c4"/>
        </g>
        <g id="triangle36-15" data-name="triangle36" transform="translate(370.796 442.163)">
          <path id="Path_158" data-name="Path 158" d="M365.145,194.01a.414.414,0,0,1-.2-.053.406.406,0,0,1-.193-.268l-4.141-20.015a.4.4,0,0,1,.069-.318.4.4,0,0,1,.28-.163L463.41,161.32a.39.39,0,0,1,.442.315.4.4,0,0,1-.272.469l-98.309,31.887A.391.391,0,0,1,365.145,194.01Zm-3.655-20.067,3.961,19.142,94.023-30.5Z" transform="translate(-360.602 -161.315)" fill="#c4c4c4"/>
        </g>
        <g id="triangle36-16" data-name="triangle36" transform="translate(49.656 687.546)">
          <path id="Path_159" data-name="Path 159" d="M174.6,362.907l5.284-57.753,47.763,30.472-16.1,27.467.932.005,16.065-27.4a.4.4,0,0,0-.131-.543l-48.65-31.038a.414.414,0,0,0-.4-.022.407.407,0,0,0-.223.327l-5.35,58.48Z" transform="translate(-173.793 -304.056)" fill="#c4c4c4"/>
        </g>
        <g id="triangle36-17" data-name="triangle36" transform="translate(55.004 629.188)">
          <path id="Path_160" data-name="Path 160" d="M225.956,360.309a.4.4,0,0,1-.215-.064l-48.65-31.036a.4.4,0,0,1-.015-.67l83.059-58.356a.4.4,0,0,1,.609.474l-34.409,89.394a.411.411,0,0,1-.251.239A.454.454,0,0,1,225.956,360.309Zm-47.923-31.457L225.759,359.3l33.756-87.7Z" transform="translate(-176.904 -270.109)" fill="#c4c4c4"/>
        </g>
        <g id="triangle36-18" data-name="triangle36" transform="translate(103.654 629.188)">
          <path id="Path_161" data-name="Path 161" d="M353.079,362.661h-.005L205.6,360.309a.4.4,0,0,1-.37-.547l34.409-89.394a.4.4,0,0,1,.631-.169l113.064,91.746a.4.4,0,0,1-.256.715Zm-146.887-3.149,145.728,2.324L240.194,271.175Z" transform="translate(-205.204 -270.109)" fill="#c4c4c4"/>
        </g>
        <g id="triangle36-19" data-name="triangle36" transform="translate(103.654 718.582)">
          <path id="Path_162" data-name="Path 162" d="M248.006,350.415l1.5.007-42.494-27.483,144.547,2.305-46.221,25.463,1.657.009,46.283-25.5a.4.4,0,0,0-.187-.756L205.615,322.11h-.005a.4.4,0,0,0-.222.741Z" transform="translate(-205.204 -322.11)" fill="#c4c4c4"/>
        </g>
        <g id="triangle36-20" data-name="triangle36" transform="translate(203.785 720.933)">
          <path id="Path_163" data-name="Path 163" d="M265.108,349.732l44.945-24.76-15.3,24.911.944,0,15.847-25.793a.407.407,0,0,0-.052-.49.4.4,0,0,0-.486-.076l-47.552,26.2Z" transform="translate(-263.451 -323.478)" fill="#c4c4c4"/>
        </g>
        <g id="triangle36-21" data-name="triangle36" transform="translate(235.084 720.932)">
          <path id="Path_164" data-name="Path 164" d="M282.6,349.887l15.685-25.532L387.6,350.423l2.931.016L298.218,323.5a.4.4,0,0,0-.457.175l-16.1,26.213Z" transform="translate(-281.658 -323.477)" fill="#c4c4c4"/>
        </g>
        <g id="triangle36-22" data-name="triangle36" transform="translate(473.247 371.027)">
          <path id="Path_165" data-name="Path 165" d="M591.08,260.325a.367.367,0,0,1-.148-.029l-170.48-68.445a.4.4,0,0,1-.107-.686l86.307-71.136a.389.389,0,0,1,.327-.086.4.4,0,0,1,.277.189l84.172,139.581a.407.407,0,0,1-.038.471A.4.4,0,0,1,591.08,260.325Zm-169.7-68.971L590.114,259.1,506.805,120.949Z" transform="translate(-420.198 -119.936)" fill="#c4c4c4"/>
        </g>
        <g id="triangle36-23" data-name="triangle36" transform="translate(559.555 339.4)">
          <path id="Path_166" data-name="Path 166" d="M554.977,273.555a.4.4,0,0,1-.344-.194L470.462,133.778a.408.408,0,0,1-.039-.328.4.4,0,0,1,.22-.248l70.721-31.628a.4.4,0,0,1,.37.021.4.4,0,0,1,.2.315l13.45,171.21a.4.4,0,0,1-.279.416A.4.4,0,0,1,554.977,273.555Zm-83.589-139.8,83.054,137.73L541.171,102.544Z" transform="translate(-470.405 -101.538)" fill="#c4c4c4"/>
        </g>
        <g id="triangle36-24" data-name="triangle36" transform="translate(630.276 338.902)">
          <path id="Path_167" data-name="Path 167" d="M525.4,273.763l-.034,0a.4.4,0,0,1-.366-.37l-13.45-171.209a.406.406,0,0,1,.1-.306.413.413,0,0,1,.294-.131l58.891-.5a.564.564,0,0,1,.321.156.4.4,0,0,1,.072.349L525.787,273.462A.4.4,0,0,1,525.4,273.763ZM512.382,102.549l13.232,168.417,44.7-168.907Z" transform="translate(-511.543 -101.248)" fill="#c4c4c4"/>
        </g>
        <g id="triangle36-25" data-name="triangle36" transform="translate(643.726 495.624)">
          <path id="Path_168" data-name="Path 168" d="M659.484,214.764,572.683,248,520.814,208.1l138.78-14.872,0-.811L519.728,207.4a.406.406,0,0,0-.346.292.4.4,0,0,0,.143.428l52.845,40.656a.4.4,0,0,0,.39.057l86.719-33.206Z" transform="translate(-519.367 -192.414)" fill="#c4c4c4"/>
        </g>
        <g id="triangle36-26" data-name="triangle36" transform="translate(630.276 283.319)">
          <path id="Path_169" data-name="Path 169" d="M511.945,125.8a.409.409,0,0,1-.373-.253.4.4,0,0,1,.095-.442l58.645-56.082a.4.4,0,0,1,.437-.081.408.408,0,0,1,.246.37l.246,55.583a.4.4,0,0,1-.4.4l-58.891.5Zm58.246-55.545-57.23,54.73,57.471-.488Z" transform="translate(-511.543 -68.915)" fill="#c4c4c4"/>
        </g>
        <g id="triangle36-27" data-name="triangle36" transform="translate(688.641 26.206)">
          <path id="Path_170" data-name="Path 170" d="M642.132,129.975l-95.554,46.25L546.3-79.05,642.555,47.1l.007-1.322L546.218-80.491a.4.4,0,0,0-.45-.136.4.4,0,0,0-.273.382l.28,257.113a.4.4,0,0,0,.187.342.415.415,0,0,0,.213.062.4.4,0,0,0,.177-.041l95.775-46.357Z" transform="translate(-545.494 80.649)" fill="#c4c4c4"/>
        </g>
        <g id="triangle36-28" data-name="triangle36" transform="translate(688.921 283.32)">
          <path id="Path_171" data-name="Path 171" d="M546.3,125.3a.4.4,0,0,1-.4-.4l-.246-55.583a.4.4,0,0,1,.132-.3.413.413,0,0,1,.316-.1l77.41,8.791a.4.4,0,0,1,.163.746l-77.165,46.79A.385.385,0,0,1,546.3,125.3Zm.162-55.533.241,54.416,75.545-45.808Z" transform="translate(-545.657 -68.916)" fill="#c4c4c4"/>
        </g>
        <g id="triangle36-29" data-name="triangle36" transform="translate(688.92 236.83)">
          <path id="Path_172" data-name="Path 172" d="M641.845,75.09,623.3,97.132,547.49,88.521l94.52-45.75.005-.9L545.884,88.4a.4.4,0,0,0,.131.763l77.41,8.791.045,0a.4.4,0,0,0,.309-.144l18.059-21.464Z" transform="translate(-545.657 -41.872)" fill="#c4c4c4"/>
        </g>
        <g id="triangle36-30" data-name="triangle36" transform="translate(766.331 270.047)">
          <path id="Path_173" data-name="Path 173" d="M609.306,92.269l-17.578-8.74,17.729-21.073.007-1.262L590.782,83.4a.4.4,0,0,0-.086.342.413.413,0,0,0,.215.28L609.3,93.168Z" transform="translate(-590.687 -61.195)" fill="#c4c4c4"/>
        </g>
        <g id="triangle36-31" data-name="triangle36" transform="translate(766.331 292.112)">
          <path id="Path_174" data-name="Path 174" d="M609.281,88.085l-14.772-11.5L609.3,83.939l.005-.9L591.27,74.071a.4.4,0,0,0-.426.681L609.276,89.1Z" transform="translate(-590.687 -74.03)" fill="#c4c4c4"/>
        </g>
        <g id="triangle36-32" data-name="triangle36" transform="translate(251.128 636.6)">
          <path id="Path_175" data-name="Path 175" d="M291.28,359.545,380.887,385.7l2.929.016-91.34-26.661,162.027-83.4L415.36,385.875l.854.005L455.6,274.959a.4.4,0,0,0-.113-.44.409.409,0,0,0-.45-.055L291.208,358.8a.4.4,0,0,0,.072.746Z" transform="translate(-290.991 -274.421)" fill="#c4c4c4"/>
        </g>
        <g id="triangle36-33" data-name="triangle36" transform="translate(375.498 636.601)">
          <path id="Path_176" data-name="Path 176" d="M364.191,385.88l39.24-110.5,106.25,51.557L378.8,385.953l1.943.01L510.8,327.322a.4.4,0,0,0,.01-.731L403.378,274.461a.416.416,0,0,0-.33-.01.4.4,0,0,0-.225.237L363.337,385.874Z" transform="translate(-363.337 -274.421)" fill="#c4c4c4"/>
        </g>
        <g id="triangle36-34" data-name="triangle36" transform="translate(374.938 474.051)">
          <path id="Path_177" data-name="Path 177" d="M410.449,216.1a.409.409,0,0,1-.241-.081L363.172,180.59a.4.4,0,0,1,.38-.7l74.667,27.172a.4.4,0,0,1-.024.765l-27.629,8.257A.385.385,0,0,1,410.449,216.1Zm-44.634-34.528,44.715,33.68L436.8,207.4Z" transform="translate(-363.011 -179.865)" fill="#c4c4c4"/>
        </g>
        <g id="triangle36-35" data-name="triangle36" transform="translate(374.937 442.163)">
          <path id="Path_178" data-name="Path 178" d="M438.078,221.182a.42.42,0,0,1-.136-.024l-74.665-27.172a.405.405,0,0,1-.266-.385.4.4,0,0,1,.28-.376L461.6,161.337a.4.4,0,0,1,.5.533l-23.644,59.059A.4.4,0,0,1,438.078,221.182Zm-73.424-27.553,73.2,26.639,23.178-57.9Z" transform="translate(-363.011 -161.316)" fill="#c4c4c4"/>
        </g>
        <g id="triangle36-36" data-name="triangle36" transform="translate(414.958 501.222)">
          <path id="Path_179" data-name="Path 179" d="M386.693,331.855a.33.33,0,0,1-.059-.005.4.4,0,0,1-.342-.421l7.016-127.121a.4.4,0,0,1,.287-.364l27.629-8.255a.4.4,0,0,1,.4.095.41.41,0,0,1,.112.392L387.087,331.551A.4.4,0,0,1,386.693,331.855Zm7.4-127.219-6.771,122.729,33.446-130.7Z" transform="translate(-386.292 -195.671)" fill="#c4c4c4"/>
        </g>
        <g id="triangle36-37" data-name="triangle36" transform="translate(449.603 442.164)">
          <path id="Path_180" data-name="Path 180" d="M600.97,230.569h-.017l-194.124-9.388a.4.4,0,0,1-.32-.186.4.4,0,0,1-.034-.368l23.644-59.057a.4.4,0,0,1,.524-.225l170.478,68.447a.4.4,0,0,1-.151.777ZM407.434,220.4,598.6,229.648l-167.881-67.4Z" transform="translate(-406.445 -161.316)" fill="#c4c4c4"/>
        </g>
        <g id="triangle36-38" data-name="triangle36" transform="translate(453.344 288.115)">
          <path id="Path_181" data-name="Path 181" d="M428.925,226.56a.387.387,0,0,1-.146-.028.4.4,0,0,1-.251-.323l-19.9-154.051a.4.4,0,0,1,.646-.368L515.483,154.7a.4.4,0,0,1,.009.629l-86.307,71.136A.406.406,0,0,1,428.925,226.56ZM409.549,73.031l19.685,152.352,85.356-70.352Z" transform="translate(-408.621 -71.705)" fill="#c4c4c4"/>
        </g>
        <g id="triangle36-39" data-name="triangle36" transform="translate(453.343 246.601)">
          <path id="Path_182" data-name="Path 182" d="M515.234,172.791a.407.407,0,0,1-.246-.086L408.776,89.79a.4.4,0,0,1-.153-.366.407.407,0,0,1,.235-.32l92.523-41.512a.4.4,0,0,1,.566.323l13.689,124.427a.4.4,0,0,1-.2.4A.408.408,0,0,1,515.234,172.791ZM409.8,89.567,514.73,171.481,501.206,48.555Z" transform="translate(-408.62 -47.556)" fill="#c4c4c4"/>
        </g>
        <g id="triangle36-40" data-name="triangle36" transform="translate(501.707 26.207)">
          <path id="Path_183" data-name="Path 183" d="M481.314,140.554a.3.3,0,0,1-.067-.007.4.4,0,0,1-.323-.3L436.764-43.118a.409.409,0,0,1,.053-.313.4.4,0,0,1,.261-.177L624.012-80.641a.406.406,0,0,1,.413.168.4.4,0,0,1,.005.445L481.655,140.37A.4.4,0,0,1,481.314,140.554ZM437.648-42.9l43.84,182.042L623.233-79.664Z" transform="translate(-436.754 80.648)" fill="#c4c4c4"/>
        </g>
        <g id="triangle36-41" data-name="triangle36" transform="translate(545.867 246.602)">
          <path id="Path_184" data-name="Path 184" d="M476.532,172.791a.433.433,0,0,1-.2-.053.405.405,0,0,1-.2-.306L462.444,48a.4.4,0,0,1,.7-.316l84.409,92.8a.4.4,0,0,1-.134.639L476.7,172.755A.4.4,0,0,1,476.532,172.791ZM463.381,49.149l13.493,122.643,69.707-31.174Z" transform="translate(-462.442 -47.557)" fill="#c4c4c4"/>
        </g>
        <g id="triangle36-42" data-name="triangle36" transform="translate(545.866 246.602)">
          <path id="Path_185" data-name="Path 185" d="M547.254,141.163h-.012a.412.412,0,0,1-.285-.132l-84.409-92.8a.4.4,0,0,1,.4-.662L606,84.287a.4.4,0,0,1,.179.682l-58.645,56.08A.4.4,0,0,1,547.254,141.163Zm-83.2-92.476,83.226,91.495L605.1,84.887Z" transform="translate(-462.441 -47.557)" fill="#c4c4c4"/>
        </g>
        <g id="triangle36-43" data-name="triangle36" transform="translate(545.866 26.207)">
          <path id="Path_186" data-name="Path 186" d="M605.9,177.272a.477.477,0,0,1-.1-.012L462.745,140.542a.4.4,0,0,1-.239-.61l142.775-220.4a.4.4,0,0,1,.452-.167.4.4,0,0,1,.289.387l.28,257.113a.4.4,0,0,1-.156.32A.411.411,0,0,1,605.9,177.272ZM463.488,139.9l142.007,36.448-.277-255.229Z" transform="translate(-462.442 80.648)" fill="#c4c4c4"/>
        </g>
        <g id="triangle36-44" data-name="triangle36" transform="translate(414.958 501.223)">
          <path id="Path_187" data-name="Path 187" d="M386.693,331.855a.41.41,0,0,1-.292-.129.4.4,0,0,1-.1-.375l34.645-135.376a.4.4,0,0,1,.249-.278.406.406,0,0,1,.371.045L568.536,297.259a.4.4,0,0,1-.155.729L386.769,331.848A.526.526,0,0,1,386.693,331.855Zm34.894-135.12-34.344,134.2,180.038-33.567Z" transform="translate(-386.292 -195.671)" fill="#c4c4c4"/>
        </g>
        <g id="triangle36-45" data-name="triangle36" transform="translate(414.959 602.738)">
          <path id="Path_188" data-name="Path 188" d="M494.124,341.521a.389.389,0,0,1-.174-.039L386.519,289.35a.4.4,0,0,1,.1-.76L568.233,254.73a.407.407,0,0,1,.425.2.4.4,0,0,1-.046.464l-74.18,85.992A.4.4,0,0,1,494.124,341.521ZM387.973,289.16,494.022,340.62l73.228-84.887Z" transform="translate(-386.292 -254.723)" fill="#c4c4c4"/>
        </g>
        <g id="triangle36-46" data-name="triangle36" transform="translate(449.603 501.223)">
          <path id="Path_189" data-name="Path 189" d="M553.814,297.994a.414.414,0,0,1-.227-.072L406.619,196.407a.405.405,0,0,1-.153-.462.42.42,0,0,1,.4-.273l194.122,9.388a.4.4,0,0,1,.34.588l-47.156,92.127a.408.408,0,0,1-.261.208A.479.479,0,0,1,553.814,297.994ZM408.24,196.546,553.666,297l46.661-91.163Z" transform="translate(-406.444 -195.671)" fill="#c4c4c4"/>
        </g>
        <g id="triangle36-47" data-name="triangle36" transform="translate(522.389 602.74)">
          <path id="Path_190" data-name="Path 190" d="M499.495,359.372a.369.369,0,0,1-.134-.024L449.054,341.5a.4.4,0,0,1-.17-.643l74.18-85.992a.4.4,0,0,1,.7.352L499.89,359.059a.408.408,0,0,1-.2.263A.414.414,0,0,1,499.495,359.372Zm-49.616-18.437,49.326,17.5,23.407-101.814Z" transform="translate(-448.785 -254.724)" fill="#c4c4c4"/>
        </g>
        <g id="triangle36-48" data-name="triangle36" transform="translate(572.698 602.74)">
          <path id="Path_191" data-name="Path 191" d="M478.451,359.372a.4.4,0,0,1-.392-.493l23.873-103.843a.4.4,0,0,1,.279-.3.412.412,0,0,1,.4.1L599.215,348.1a.4.4,0,0,1,.1.423.406.406,0,0,1-.345.268L478.487,359.37Zm24.108-103.46L478.97,358.517l119.048-10.454Z" transform="translate(-478.049 -254.724)" fill="#c4c4c4"/>
        </g>
        <g id="triangle36-49" data-name="triangle36" transform="translate(596.571 510.611)">
          <path id="Path_192" data-name="Path 192" d="M492.338,294.067a.4.4,0,0,1-.358-.588l47.156-92.127a.4.4,0,0,1,.27-.21.4.4,0,0,1,.335.074l52.845,40.655a.4.4,0,0,1-.06.679l-100,51.473A.429.429,0,0,1,492.338,294.067Zm47.3-91.916L493.27,292.73l98.321-50.606Z" transform="translate(-491.936 -201.132)" fill="#c4c4c4"/>
        </g>
        <g id="triangle36-50" data-name="triangle36" transform="translate(596.57 561.458)">
          <path id="Path_193" data-name="Path 193" d="M588.947,366.059a.4.4,0,0,1-.279-.113l-96.609-93.26a.4.4,0,0,1,.165-.677l138.146-41.28a.4.4,0,0,1,.5.505L589.336,365.775a.4.4,0,0,1-.285.27A.424.424,0,0,1,588.947,366.059Zm-95.83-93.475,95.641,92.327,41.119-133.195Z" transform="translate(-491.936 -230.71)" fill="#c4c4c4"/>
        </g>
        <g id="triangle36-51" data-name="triangle36" transform="translate(596.57 551.267)">
          <path id="Path_194" data-name="Path 194" d="M492.338,277.061a.4.4,0,0,1-.184-.763l100-51.471a.4.4,0,0,1,.289-.031l38.145,10.191a.4.4,0,0,1,.01.775L492.455,277.044A.393.393,0,0,1,492.338,277.061Zm100.049-51.447-96,49.412L629.005,235.4Z" transform="translate(-491.936 -224.782)" fill="#c4c4c4"/>
        </g>
        <g id="triangle36-52" data-name="triangle36" transform="translate(0 587.084)">
          <path id="Path_195" data-name="Path 195" d="M145.31,313.414a.4.4,0,0,1-.2-.751l114.405-66.993a.425.425,0,0,1,.309-.041.4.4,0,0,1,.246.193l23.66,42.105a.4.4,0,0,1,.012.37.408.408,0,0,1-.292.225L145.382,313.408A.34.34,0,0,1,145.31,313.414Zm114.255-66.84L147.476,312.211l135.27-24.382Z" transform="translate(-144.908 -245.617)" fill="#c4c4c4"/>
        </g>
        <g id="triangle36-53" data-name="triangle36" transform="translate(114.404 573.047)">
          <path id="Path_196" data-name="Path 196" d="M235.518,294.4l-.036,0a.4.4,0,0,1-.313-.2l-23.66-42.107a.4.4,0,0,1-.015-.366.409.409,0,0,1,.289-.227l70.632-14.035a.4.4,0,0,1,.387.655L235.83,294.256A.4.4,0,0,1,235.518,294.4Zm-23.032-42.221,23.1,41.11,45.863-54.815Z" transform="translate(-211.458 -237.452)" fill="#c4c4c4"/>
        </g>
        <g id="triangle36-54" data-name="triangle36" transform="translate(337.927 260.047)">
          <path id="Path_197" data-name="Path 197" d="M341.884,141.643a.406.406,0,0,1-.389-.505l22.187-85.457a.4.4,0,0,1,.781.2l-22.187,85.457A.407.407,0,0,1,341.884,141.643Z" transform="translate(-341.482 -55.378)" fill="#c4c4c4"/>
        </g>
        <g id="triangle36-55" data-name="triangle36" transform="translate(337.927 260.049)">
          <path id="Path_198" data-name="Path 198" d="M341.884,141.643a.4.4,0,0,1-.389-.505L363.682,55.68a.4.4,0,0,1,.507-.284l93.229,28.066a.4.4,0,0,1,.062.748L342.065,141.6A.4.4,0,0,1,341.884,141.643Zm22.474-85.354-21.86,84.2L456.21,83.94Z" transform="translate(-341.482 -55.379)" fill="#c4c4c4"/>
        </g>
        <g id="triangle36-56" data-name="triangle36" transform="translate(337.927 345.505)">
          <path id="Path_199" data-name="Path 199" d="M374.753,214.428a.407.407,0,0,1-.385-.287L341.5,105.61a.4.4,0,0,1,.621-.445l135.319,96.659a.4.4,0,0,1-.187.729L374.8,214.424A.458.458,0,0,1,374.753,214.428ZM342.615,106.511l32.429,107.073,101.075-11.712Z" transform="translate(-341.482 -105.089)" fill="#c4c4c4"/>
        </g>
        <g id="triangle36-57" data-name="triangle36" transform="translate(337.927 288.115)">
          <path id="Path_200" data-name="Path 200" d="M477.2,226.56a.393.393,0,0,1-.232-.074L341.652,129.827a.4.4,0,0,1-.169-.359.4.4,0,0,1,.222-.33l115.418-57.39a.4.4,0,0,1,.37,0,.41.41,0,0,1,.21.306l19.9,154.049a.4.4,0,0,1-.4.454Zm-134.537-97,134.02,95.731L456.973,72.721Z" transform="translate(-341.482 -71.705)" fill="#c4c4c4"/>
        </g>
        <g id="triangle36-58" data-name="triangle36" transform="translate(300.379 454.036)">
          <path id="Path_201" data-name="Path 201" d="M320.042,245.044a.4.4,0,0,1-.294-.677l70.417-76.014a.4.4,0,0,1,.4-.115.4.4,0,0,1,.287.308L395,188.559a.4.4,0,0,1-.153.4l-74.558,56A.408.408,0,0,1,320.042,245.044Zm70.183-75.569-66.838,72.15,70.768-53.152Z" transform="translate(-319.64 -168.222)" fill="#c4c4c4"/>
        </g>
        <g id="triangle36-59" data-name="triangle36" transform="translate(300.378 474.052)">
          <path id="Path_202" data-name="Path 202" d="M320.042,236.672a.406.406,0,0,1-.37-.244.4.4,0,0,1,.129-.481l74.558-56a.408.408,0,0,1,.485,0l47.036,35.429a.4.4,0,0,1-.175.72L320.111,236.665A.321.321,0,0,1,320.042,236.672Zm74.56-55.9-72.989,54.82,119.035-20.139Z" transform="translate(-319.64 -179.866)" fill="#c4c4c4"/>
        </g>
        <g id="triangle36-60" data-name="triangle36" transform="translate(300.379 509.478)">
          <path id="Path_203" data-name="Path 203" d="M434.621,328.4a.408.408,0,0,1-.272-.108L319.769,221.745a.4.4,0,0,1,.208-.693L441.571,200.48a.4.4,0,0,1,.469.419L435.027,328.02a.4.4,0,0,1-.253.352A.4.4,0,0,1,434.621,328.4ZM320.917,221.71,434.268,327.116l6.94-125.756Z" transform="translate(-319.64 -200.473)" fill="#c4c4c4"/>
        </g>
        <g id="triangle36-61" data-name="triangle36" transform="translate(643.727 338.902)">
          <path id="Path_204" data-name="Path 204" d="M659.972,184.637l-139.55,87.837L565.483,102.2l94.706,40.008.005-.873-94.826-40.06a.407.407,0,0,0-.335.01.4.4,0,0,0-.211.26L519.38,273.258a.406.406,0,0,0,.151.428.406.406,0,0,0,.454.016l139.982-88.108Z" transform="translate(-519.367 -101.248)" fill="#c4c4c4"/>
        </g>
        <g id="triangle36-62" data-name="triangle36" transform="translate(643.726 422.291)">
          <path id="Path_205" data-name="Path 205" d="M659.6,223.089l-138.137,14.8,138.507-87.178.005-.958L519.556,238.138a.4.4,0,0,0,.213.744.406.406,0,0,0,.045,0l139.78-14.98Z" transform="translate(-519.367 -149.756)" fill="#c4c4c4"/>
        </g>
        <g id="triangle36-63" data-name="triangle36" transform="translate(689.166 338.902)">
          <path id="Path_206" data-name="Path 206" d="M641.187,141.339,548.52,102.192l92.839,5.474,0-.808-95.134-5.608a.38.38,0,0,0-.418.309.405.405,0,0,0,.235.464l95.136,40.189Z" transform="translate(-545.8 -101.248)" fill="#c4c4c4"/>
        </g>
        <g id="triangle36-64" data-name="triangle36" transform="translate(138.064 572.721)">
          <path id="Path_207" data-name="Path 207" d="M225.622,294.535a.4.4,0,0,1-.323-.165.4.4,0,0,1,.015-.5l46.972-56.142a.409.409,0,0,1,.309-.143l92.843-.327h0a.4.4,0,0,1,.15.777L225.775,294.506A.368.368,0,0,1,225.622,294.535Zm47.163-56.14-45.817,54.76,136.378-55.078Z" transform="translate(-225.221 -237.262)" fill="#c4c4c4"/>
        </g>
        <g id="triangle36-65" data-name="triangle36" transform="translate(138.064 572.722)">
          <path id="Path_208" data-name="Path 208" d="M338.686,386.28a.4.4,0,0,1-.253-.089L225.369,294.445a.4.4,0,0,1,.1-.688l139.817-56.467a.409.409,0,0,1,.406.062.4.4,0,0,1,.143.383L339.085,385.949a.4.4,0,0,1-.4.332ZM226.409,294.249l112,90.885,26.5-146.82Z" transform="translate(-225.221 -237.263)" fill="#c4c4c4"/>
        </g>
        <g id="triangle36-66" data-name="triangle36" transform="translate(185.036 530.051)">
          <path id="Path_209" data-name="Path 209" d="M252.946,256.244a.4.4,0,0,1-.139-.782l115.344-43a.4.4,0,0,1,.5.567l-22.5,42.669a.4.4,0,0,1-.356.215l-92.843.327ZM367.44,213.591,255.207,255.429l90.341-.316Z" transform="translate(-252.544 -212.441)" fill="#c4c4c4"/>
        </g>
        <g id="triangle36-67" data-name="triangle36" transform="translate(251.127 572.722)">
          <path id="Path_210" data-name="Path 210" d="M291.392,386.28a.386.386,0,0,1-.237-.079.4.4,0,0,1-.158-.4l26.752-148.212a.4.4,0,0,1,.211-.285.4.4,0,0,1,.356-.009L455.4,301.177a.4.4,0,0,1,.014.725L291.58,386.236A.385.385,0,0,1,291.392,386.28Zm27.058-148.029L291.935,385.144l162.373-83.582Z" transform="translate(-290.99 -237.262)" fill="#c4c4c4"/>
        </g>
        <g id="triangle36-68" data-name="triangle36" transform="translate(277.88 530.051)">
          <path id="Path_211" data-name="Path 211" d="M444.032,319.8a.452.452,0,0,1-.168-.038L306.786,255.879a.4.4,0,0,1-.211-.235.4.4,0,0,1,.024-.318l22.5-42.669a.405.405,0,0,1,.633-.108L444.309,319.1a.4.4,0,0,1-.277.7ZM307.511,255.327l134.377,62.619L329.565,213.5Z" transform="translate(-306.552 -212.44)" fill="#c4c4c4"/>
        </g>
        <g id="triangle36-69" data-name="triangle36" transform="translate(734.716 533.478)">
          <path id="Path_212" data-name="Path 212" d="M621.109,260.418l-47.462-17.679,47.693-27.371.005-.933L572.5,242.467a.4.4,0,0,0,.06.729l48.545,18.081Z" transform="translate(-572.296 -214.434)" fill="#c4c4c4"/>
        </g>
        <g id="triangle36-70" data-name="triangle36" transform="translate(360.114 197.745)">
          <path id="Path_213" data-name="Path 213" d="M354.79,82.247a.4.4,0,0,1-.222-.739l93.159-62.3a.4.4,0,0,1,.449.67l-93.159,62.3A.4.4,0,0,1,354.79,82.247Z" transform="translate(-354.388 -19.136)" fill="#c4c4c4"/>
        </g>
        <g id="triangle36-71" data-name="triangle36" transform="translate(360.114 197.746)">
          <path id="Path_214" data-name="Path 214" d="M448.019,110.312a.375.375,0,0,1-.115-.017L354.676,82.229a.4.4,0,0,1-.108-.722l93.159-62.3a.4.4,0,0,1,.628.335l.07,90.369a.4.4,0,0,1-.406.4ZM355.727,81.7l91.89,27.663-.069-89.073Z" transform="translate(-354.389 -19.137)" fill="#c4c4c4"/>
        </g>
        <g id="triangle36-72" data-name="triangle36" transform="translate(453.274 197.745)">
          <path id="Path_215" data-name="Path 215" d="M409.051,110.312a.4.4,0,0,1-.217-.065.4.4,0,0,1-.186-.337L408.58,19.54a.4.4,0,0,1,.591-.356L501.765,68.04a.4.4,0,0,1-.024.724l-92.523,41.514A.4.4,0,0,1,409.051,110.312Zm.335-90.1.069,89.076,91.2-40.919Z" transform="translate(-408.58 -19.137)" fill="#c4c4c4"/>
        </g>
        <g id="triangle36-73" data-name="triangle36" transform="translate(453.273 63.237)">
          <path id="Path_216" data-name="Path 216" d="M501.574,125.064a.408.408,0,0,1-.187-.046L408.8,76.161a.4.4,0,0,1-.193-.493L457.036-58.84a.391.391,0,0,1,.4-.265.4.4,0,0,1,.371.308l44.158,183.363a.4.4,0,0,1-.144.414A.415.415,0,0,1,501.574,125.064ZM409.481,75.611l91.493,48.275L457.341-57.3Z" transform="translate(-408.579 59.108)" fill="#c4c4c4"/>
        </g>
        <g id="triangle36-74" data-name="triangle36" transform="translate(693.18 561.458)">
          <path id="Path_217" data-name="Path 217" d="M638.2,304.641,549.261,364.68l40.971-132.706,48.023,61.791.007-1.307-47.868-61.591a.4.4,0,0,0-.7.127L548.152,365.536a.406.406,0,0,0,.146.444.4.4,0,0,0,.237.079.414.414,0,0,0,.229-.069l89.428-60.372Z" transform="translate(-548.135 -230.71)" fill="#c4c4c4"/>
        </g>
        <g id="triangle36-75" data-name="triangle36" transform="translate(693.18 635.389)">
          <path id="Path_218" data-name="Path 218" d="M637.777,356.483l-88.261-21.925,88.677-59.865.005-.976L548.312,334.4a.4.4,0,0,0,.129.725l89.33,22.192Z" transform="translate(-548.134 -273.716)" fill="#c4c4c4"/>
        </g>
        <g id="triangle36-76" data-name="triangle36" transform="translate(734.717 561.458)">
          <path id="Path_219" data-name="Path 219" d="M620.887,292.458l-47-60.47,47.215,17.586,0-.86L572.84,230.736a.4.4,0,0,0-.459.624l48.5,62.4Z" transform="translate(-572.297 -230.71)" fill="#c4c4c4"/>
        </g>
      </g>
      <g id="Group_45" data-name="Group 45" transform="translate(142.831 -97.677)">
        <g id="Group_9" data-name="Group 9" transform="translate(713.442)">
          <path id="Path_220" data-name="Path 220" d="M563.01-96.738a4.206,4.206,0,0,0-4.227,4.184,4.206,4.206,0,0,0,4.184,4.229,4.207,4.207,0,0,0,4.229-4.186A4.206,4.206,0,0,0,563.01-96.738Z" transform="translate(-557.169 98.352)" fill="#c4c4c4"/>
          <path id="Path_221" data-name="Path 221" d="M563.685-96.063a4.206,4.206,0,0,1,4.186,4.227,4.207,4.207,0,0,1-4.229,4.186,4.207,4.207,0,0,1-4.184-4.229,4.206,4.206,0,0,1,4.227-4.184m.009-1.614a5.828,5.828,0,0,0-5.85,5.79,5.826,5.826,0,0,0,5.79,5.85,5.825,5.825,0,0,0,5.85-5.79,5.826,5.826,0,0,0-5.79-5.85Z" transform="translate(-557.844 97.677)" fill="#231f20"/>
        </g>
        <g id="Group_10" data-name="Group 10" transform="translate(54.768 686.805)">
          <path id="Path_222" data-name="Path 222" d="M178.239,302.78a2.6,2.6,0,1,0,2.582,2.61A2.6,2.6,0,0,0,178.239,302.78Z" transform="translate(-174.015 -301.166)" fill="#c4c4c4"/>
          <path id="Path_223" data-name="Path 223" d="M178.914,303.455a2.6,2.6,0,1,1-2.61,2.582,2.6,2.6,0,0,1,2.61-2.582m.007-1.614a4.209,4.209,0,1,0,4.188,4.231,4.214,4.214,0,0,0-4.188-4.231Z" transform="translate(-174.69 -301.841)" fill="#231f20"/>
        </g>
        <g id="Group_11" data-name="Group 11" transform="translate(102.421 716.846)">
          <path id="Path_224" data-name="Path 224" d="M206.962,320.254a3.594,3.594,0,1,0,3.574,3.612A3.594,3.594,0,0,0,206.962,320.254Z" transform="translate(-201.735 -318.641)" fill="#c4c4c4"/>
          <path id="Path_225" data-name="Path 225" d="M207.636,320.929a3.594,3.594,0,1,1-3.614,3.576,3.594,3.594,0,0,1,3.614-3.576m.007-1.612a5.207,5.207,0,1,0,5.181,5.233,5.211,5.211,0,0,0-5.181-5.233Z" transform="translate(-202.41 -319.316)" fill="#231f20"/>
        </g>
        <g id="Group_12" data-name="Group 12" transform="translate(765.575 290.85)">
          <path id="Path_226" data-name="Path 226" d="M592.242,72.451a3.118,3.118,0,1,0,3.1,3.134A3.118,3.118,0,0,0,592.242,72.451Z" transform="translate(-587.495 -70.837)" fill="#c4c4c4"/>
          <path id="Path_227" data-name="Path 227" d="M592.917,73.126a3.118,3.118,0,1,1-3.134,3.1,3.118,3.118,0,0,1,3.134-3.1m.008-1.614a4.731,4.731,0,1,0,4.707,4.755,4.736,4.736,0,0,0-4.707-4.755Z" transform="translate(-588.17 -71.512)" fill="#231f20"/>
        </g>
        <g id="Group_13" data-name="Group 13" transform="translate(556.572 367.542)">
          <circle id="Ellipse_1" data-name="Ellipse 1" cx="5.344" cy="5.344" r="5.344" transform="translate(1.613 1.613)" fill="#c4c4c4"/>
          <path id="Path_228" data-name="Path 228" d="M473.577,117.738a5.344,5.344,0,1,1-5.372,5.315,5.343,5.343,0,0,1,5.372-5.315m.009-1.614a6.957,6.957,0,1,0,6.921,6.993,6.964,6.964,0,0,0-6.921-6.993Z" transform="translate(-466.592 -116.124)" fill="#231f20"/>
        </g>
        <g id="Group_14" data-name="Group 14" transform="translate(630.348 338.969)">
          <path id="Path_229" data-name="Path 229" d="M515.023,102.742a2.288,2.288,0,1,0-2.3,2.276A2.286,2.286,0,0,0,515.023,102.742Z" transform="translate(-508.833 -98.828)" fill="#c4c4c4"/>
          <path id="Path_230" data-name="Path 230" d="M513.422,101.117a2.288,2.288,0,1,1-2.3,2.276,2.286,2.286,0,0,1,2.3-2.276m.007-1.614a3.9,3.9,0,1,0,3.883,3.921,3.907,3.907,0,0,0-3.883-3.921Z" transform="translate(-509.508 -99.503)" fill="#231f20"/>
        </g>
        <g id="Group_15" data-name="Group 15" transform="translate(686.014 279.91)">
          <path id="Path_231" data-name="Path 231" d="M548.066,76.618a5.266,5.266,0,1,0-5.238-5.293A5.267,5.267,0,0,0,548.066,76.618Z" transform="translate(-541.214 -64.473)" fill="#c4c4c4"/>
          <path id="Path_232" data-name="Path 232" d="M548.8,66.762A5.266,5.266,0,1,1,543.5,72a5.267,5.267,0,0,1,5.293-5.238m.007-1.614a6.879,6.879,0,1,0,6.844,6.914,6.889,6.889,0,0,0-6.844-6.914Z" transform="translate(-541.889 -65.148)" fill="#231f20"/>
        </g>
        <g id="Group_16" data-name="Group 16" transform="translate(687.712 24.774)">
          <path id="Path_233" data-name="Path 233" d="M550.392-79.021a3.287,3.287,0,0,0-3.271-3.306,3.289,3.289,0,0,0-3.306,3.271,3.289,3.289,0,0,0,3.273,3.306A3.288,3.288,0,0,0,550.392-79.021Z" transform="translate(-542.202 83.941)" fill="#c4c4c4"/>
          <path id="Path_234" data-name="Path 234" d="M547.8-81.652a3.289,3.289,0,0,1,3.273,3.306,3.291,3.291,0,0,1-3.306,3.271,3.289,3.289,0,0,1-3.273-3.306,3.289,3.289,0,0,1,3.306-3.271m.009-1.614a4.908,4.908,0,0,0-4.927,4.877,4.909,4.909,0,0,0,4.877,4.929,4.909,4.909,0,0,0,4.927-4.879,4.908,4.908,0,0,0-4.877-4.927Z" transform="translate(-542.877 83.266)" fill="#231f20"/>
        </g>
        <g id="Group_17" data-name="Group 17" transform="translate(447.206 498.323)">
          <path id="Path_235" data-name="Path 235" d="M408.693,193.138a4.758,4.758,0,1,0,4.734,4.782A4.757,4.757,0,0,0,408.693,193.138Z" transform="translate(-402.298 -191.525)" fill="#c4c4c4"/>
          <path id="Path_236" data-name="Path 236" d="M409.368,193.813a4.758,4.758,0,1,1-4.781,4.733,4.759,4.759,0,0,1,4.781-4.733m.009-1.613a6.371,6.371,0,1,0,6.338,6.4,6.378,6.378,0,0,0-6.338-6.4Z" transform="translate(-402.973 -192.2)" fill="#231f20"/>
        </g>
        <g id="Group_18" data-name="Group 18" transform="translate(520.662 686.501)">
          <path id="Path_237" data-name="Path 237" d="M450.749,302.6a4.087,4.087,0,1,0,4.066,4.109A4.087,4.087,0,0,0,450.749,302.6Z" transform="translate(-445.028 -300.99)" fill="#c4c4c4"/>
          <path id="Path_238" data-name="Path 238" d="M451.424,303.277a4.087,4.087,0,1,1-4.107,4.066,4.087,4.087,0,0,1,4.107-4.066m.009-1.613a5.7,5.7,0,1,0,5.671,5.728,5.707,5.707,0,0,0-5.671-5.728Z" transform="translate(-445.703 -301.664)" fill="#231f20"/>
        </g>
        <g id="Group_19" data-name="Group 19" transform="translate(569.759 703.138)">
          <path id="Path_239" data-name="Path 239" d="M480.528,312.281a5.3,5.3,0,1,0,5.271,5.326A5.3,5.3,0,0,0,480.528,312.281Z" transform="translate(-473.588 -310.667)" fill="#c4c4c4"/>
          <path id="Path_240" data-name="Path 240" d="M481.2,312.956a5.3,5.3,0,1,1-5.328,5.272,5.3,5.3,0,0,1,5.328-5.272m.007-1.614a6.913,6.913,0,1,0,6.878,6.949,6.921,6.921,0,0,0-6.878-6.949Z" transform="translate(-474.263 -311.342)" fill="#231f20"/>
        </g>
        <g id="Group_20" data-name="Group 20" transform="translate(595.965 601.629)">
          <path id="Path_241" data-name="Path 241" d="M493.428,253.232a2.966,2.966,0,1,0,2.95,2.981A2.968,2.968,0,0,0,493.428,253.232Z" transform="translate(-488.833 -251.619)" fill="#c4c4c4"/>
          <path id="Path_242" data-name="Path 242" d="M494.1,253.907a2.966,2.966,0,1,1-2.983,2.952,2.966,2.966,0,0,1,2.983-2.952m.007-1.612a4.58,4.58,0,1,0,4.557,4.6,4.583,4.583,0,0,0-4.557-4.6Z" transform="translate(-489.507 -252.294)" fill="#231f20"/>
        </g>
        <g id="Group_21" data-name="Group 21" transform="translate(693.19 547.38)">
          <path id="Path_243" data-name="Path 243" d="M552.773,221.676a5.742,5.742,0,1,0,5.713,5.771A5.742,5.742,0,0,0,552.773,221.676Z" transform="translate(-545.388 -220.062)" fill="#c4c4c4"/>
          <path id="Path_244" data-name="Path 244" d="M553.448,222.351a5.742,5.742,0,1,1-5.771,5.712,5.741,5.741,0,0,1,5.771-5.712m.009-1.614a7.356,7.356,0,1,0,7.318,7.394,7.364,7.364,0,0,0-7.318-7.394Z" transform="translate(-546.063 -220.737)" fill="#231f20"/>
        </g>
        <g id="Group_22" data-name="Group 22" transform="translate(0 653.57)">
          <path id="Path_245" data-name="Path 245" d="M146.143,283.447a2.361,2.361,0,1,0,2.35,2.374A2.362,2.362,0,0,0,146.143,283.447Z" transform="translate(-142.156 -281.833)" fill="#c4c4c4"/>
          <path id="Path_246" data-name="Path 246" d="M146.818,284.122a2.361,2.361,0,1,1-2.374,2.35,2.362,2.362,0,0,1,2.374-2.35m.009-1.614a3.975,3.975,0,1,0,3.956,4,3.98,3.98,0,0,0-3.956-4Z" transform="translate(-142.831 -282.508)" fill="#231f20"/>
        </g>
        <g id="Group_23" data-name="Group 23" transform="translate(112.946 585.119)">
          <path id="Path_247" data-name="Path 247" d="M213.31,243.629a3.819,3.819,0,1,0,3.8,3.839A3.818,3.818,0,0,0,213.31,243.629Z" transform="translate(-207.857 -242.015)" fill="#c4c4c4"/>
          <path id="Path_248" data-name="Path 248" d="M213.985,244.3a3.819,3.819,0,1,1-3.839,3.8,3.82,3.82,0,0,1,3.839-3.8m.009-1.614a5.433,5.433,0,1,0,5.4,5.462,5.44,5.44,0,0,0-5.4-5.462Z" transform="translate(-208.532 -242.69)" fill="#231f20"/>
        </g>
        <g id="Group_24" data-name="Group 24" transform="translate(337.982 345.056)">
          <path id="Path_249" data-name="Path 249" d="M342.694,103.983a2.306,2.306,0,1,0,2.293,2.317A2.307,2.307,0,0,0,342.694,103.983Z" transform="translate(-338.763 -102.369)" fill="#c4c4c4"/>
          <path id="Path_250" data-name="Path 250" d="M343.369,104.658a2.306,2.306,0,1,1-2.319,2.295,2.306,2.306,0,0,1,2.319-2.295m.007-1.614a3.92,3.92,0,1,0,3.9,3.94,3.924,3.924,0,0,0-3.9-3.94Z" transform="translate(-339.437 -103.044)" fill="#231f20"/>
        </g>
        <g id="Group_25" data-name="Group 25" transform="translate(470.352 438.763)">
          <path id="Path_251" data-name="Path 251" d="M422.66,158.493a5.256,5.256,0,1,0,5.229,5.283A5.257,5.257,0,0,0,422.66,158.493Z" transform="translate(-415.762 -156.879)" fill="#c4c4c4"/>
          <path id="Path_252" data-name="Path 252" d="M423.334,159.168a5.256,5.256,0,1,1-5.283,5.229,5.254,5.254,0,0,1,5.283-5.229m.009-1.614a6.87,6.87,0,1,0,6.835,6.906,6.879,6.879,0,0,0-6.835-6.906Z" transform="translate(-416.437 -157.554)" fill="#231f20"/>
        </g>
        <g id="Group_26" data-name="Group 26" transform="translate(370.535 453.271)">
          <path id="Path_253" data-name="Path 253" d="M361.921,172.177a2.622,2.622,0,1,0-2.61-2.637A2.624,2.624,0,0,0,361.921,172.177Z" transform="translate(-357.698 -165.318)" fill="#c4c4c4"/>
          <path id="Path_254" data-name="Path 254" d="M362.621,167.607a2.622,2.622,0,1,1-2.635,2.608,2.621,2.621,0,0,1,2.635-2.608m.009-1.614a4.236,4.236,0,1,0,4.215,4.258,4.24,4.24,0,0,0-4.215-4.258Z" transform="translate(-358.373 -165.993)" fill="#231f20"/>
        </g>
        <g id="Group_27" data-name="Group 27" transform="translate(374.334 472.944)">
          <path id="Path_255" data-name="Path 255" d="M364.5,178.375a2.965,2.965,0,1,0,2.948,2.979A2.966,2.966,0,0,0,364.5,178.375Z" transform="translate(-359.908 -176.762)" fill="#c4c4c4"/>
          <path id="Path_256" data-name="Path 256" d="M365.176,179.05A2.965,2.965,0,1,1,362.2,182a2.964,2.964,0,0,1,2.979-2.95m.009-1.613a4.577,4.577,0,1,0,4.554,4.6,4.583,4.583,0,0,0-4.554-4.6Z" transform="translate(-360.583 -177.437)" fill="#231f20"/>
        </g>
        <g id="Group_28" data-name="Group 28" transform="translate(422.014 509.016)">
          <path id="Path_257" data-name="Path 257" d="M391.59,199.359a2.32,2.32,0,1,0,2.309,2.331A2.321,2.321,0,0,0,391.59,199.359Z" transform="translate(-387.644 -197.745)" fill="#c4c4c4"/>
          <path id="Path_258" data-name="Path 258" d="M392.264,200.034a2.32,2.32,0,1,1-2.333,2.307,2.319,2.319,0,0,1,2.333-2.307m.009-1.614a3.933,3.933,0,1,0,3.913,3.954,3.938,3.938,0,0,0-3.913-3.954Z" transform="translate(-388.319 -198.42)" fill="#231f20"/>
        </g>
        <g id="Group_29" data-name="Group 29" transform="translate(642.054 508.434)">
          <path id="Path_259" data-name="Path 259" d="M521.31,199.02a4.034,4.034,0,1,0,4.012,4.055A4.035,4.035,0,0,0,521.31,199.02Z" transform="translate(-515.642 -197.407)" fill="#c4c4c4"/>
          <path id="Path_260" data-name="Path 260" d="M521.985,199.695a4.034,4.034,0,1,1-4.055,4.014,4.034,4.034,0,0,1,4.055-4.014m.009-1.613a5.647,5.647,0,1,0,5.618,5.675,5.651,5.651,0,0,0-5.618-5.675Z" transform="translate(-516.317 -198.082)" fill="#231f20"/>
        </g>
        <g id="Group_30" data-name="Group 30" transform="translate(686.891 336.122)">
          <path id="Path_261" data-name="Path 261" d="M548,98.785a4.637,4.637,0,1,0,4.614,4.66A4.639,4.639,0,0,0,548,98.785Z" transform="translate(-541.724 -97.172)" fill="#c4c4c4"/>
          <path id="Path_262" data-name="Path 262" d="M548.672,99.46a4.637,4.637,0,1,1-4.66,4.614,4.637,4.637,0,0,1,4.66-4.614m.009-1.612a6.25,6.25,0,1,0,6.22,6.282,6.255,6.255,0,0,0-6.22-6.282Z" transform="translate(-542.399 -97.847)" fill="#231f20"/>
        </g>
        <g id="Group_31" data-name="Group 31" transform="translate(135.397 626.016)">
          <path id="Path_263" data-name="Path 263" d="M227.584,267.419a5.028,5.028,0,1,0,5,5.054A5.029,5.029,0,0,0,227.584,267.419Z" transform="translate(-220.917 -265.805)" fill="#c4c4c4"/>
          <path id="Path_264" data-name="Path 264" d="M228.259,268.094a5.028,5.028,0,1,1-5.054,5,5.028,5.028,0,0,1,5.054-5m.009-1.614a6.643,6.643,0,1,0,6.608,6.677,6.649,6.649,0,0,0-6.608-6.677Z" transform="translate(-221.592 -266.48)" fill="#231f20"/>
        </g>
        <g id="Group_32" data-name="Group 32" transform="translate(184.501 572.01)">
          <path id="Path_265" data-name="Path 265" d="M256.887,238.912a2.9,2.9,0,1,0-2.91,2.881A2.9,2.9,0,0,0,256.887,238.912Z" transform="translate(-249.481 -234.389)" fill="#c4c4c4"/>
          <path id="Path_266" data-name="Path 266" d="M254.681,236.677a2.9,2.9,0,1,1-2.91,2.881,2.9,2.9,0,0,1,2.91-2.881m.009-1.612a4.508,4.508,0,1,0,4.485,4.531,4.514,4.514,0,0,0-4.485-4.531Z" transform="translate(-250.156 -235.064)" fill="#231f20"/>
        </g>
        <g id="Group_33" data-name="Group 33" transform="translate(248.939 718.242)">
          <path id="Path_267" data-name="Path 267" d="M293.151,321.066a4.55,4.55,0,1,0,4.526,4.573A4.552,4.552,0,0,0,293.151,321.066Z" transform="translate(-286.966 -319.453)" fill="#c4c4c4"/>
          <path id="Path_268" data-name="Path 268" d="M293.825,321.741a4.55,4.55,0,1,1-4.573,4.526,4.55,4.55,0,0,1,4.573-4.526m.009-1.612a6.163,6.163,0,1,0,6.132,6.194,6.169,6.169,0,0,0-6.132-6.194Z" transform="translate(-287.64 -320.128)" fill="#231f20"/>
        </g>
        <g id="Group_34" data-name="Group 34" transform="translate(275.483 569.821)">
          <path id="Path_269" data-name="Path 269" d="M308.8,234.729a4.758,4.758,0,1,0,4.733,4.783A4.759,4.759,0,0,0,308.8,234.729Z" transform="translate(-302.406 -233.116)" fill="#c4c4c4"/>
          <path id="Path_270" data-name="Path 270" d="M309.476,235.4a4.758,4.758,0,1,1-4.782,4.734,4.758,4.758,0,0,1,4.782-4.734m.009-1.613a6.371,6.371,0,1,0,6.337,6.4,6.376,6.376,0,0,0-6.337-6.4Z" transform="translate(-303.081 -233.791)" fill="#231f20"/>
        </g>
        <g id="Group_35" data-name="Group 35" transform="translate(413.17 634.306)">
          <path id="Path_271" data-name="Path 271" d="M388.284,272.241a4.15,4.15,0,1,0,4.128,4.171A4.148,4.148,0,0,0,388.284,272.241Z" transform="translate(-382.499 -270.627)" fill="#c4c4c4"/>
          <path id="Path_272" data-name="Path 272" d="M388.959,272.916a4.15,4.15,0,1,1-4.172,4.129,4.149,4.149,0,0,1,4.172-4.129m.009-1.614A5.763,5.763,0,1,0,394.7,277.1a5.77,5.77,0,0,0-5.733-5.793Z" transform="translate(-383.174 -271.302)" fill="#231f20"/>
        </g>
        <g id="Group_36" data-name="Group 36" transform="translate(299.693 528.862)">
          <path id="Path_273" data-name="Path 273" d="M321.165,210.9a3.046,3.046,0,1,0,3.031,3.062A3.047,3.047,0,0,0,321.165,210.9Z" transform="translate(-316.489 -209.29)" fill="#c4c4c4"/>
          <path id="Path_274" data-name="Path 274" d="M321.84,211.579a3.045,3.045,0,1,1-3.062,3.029,3.045,3.045,0,0,1,3.062-3.029m.009-1.614a4.66,4.66,0,1,0,4.635,4.683,4.665,4.665,0,0,0-4.635-4.683Z" transform="translate(-317.164 -209.965)" fill="#231f20"/>
        </g>
        <g id="Group_37" data-name="Group 37" transform="translate(358.831 258.261)">
          <path id="Path_275" data-name="Path 275" d="M356.166,53.494a3.644,3.644,0,1,0,3.626,3.662A3.643,3.643,0,0,0,356.166,53.494Z" transform="translate(-350.89 -51.88)" fill="#c4c4c4"/>
          <path id="Path_276" data-name="Path 276" d="M356.841,54.169a3.644,3.644,0,1,1-3.662,3.626,3.644,3.644,0,0,1,3.662-3.626m.009-1.614a5.257,5.257,0,1,0,5.229,5.284,5.266,5.266,0,0,0-5.229-5.284Z" transform="translate(-351.565 -52.555)" fill="#231f20"/>
        </g>
        <g id="Group_38" data-name="Group 38" transform="translate(452.997 287.266)">
          <path id="Path_277" data-name="Path 277" d="M410,70.365a2.707,2.707,0,1,0,2.692,2.721A2.706,2.706,0,0,0,410,70.365Z" transform="translate(-405.667 -68.752)" fill="#c4c4c4"/>
          <path id="Path_278" data-name="Path 278" d="M410.676,71.04a2.707,2.707,0,1,1-2.72,2.694,2.708,2.708,0,0,1,2.72-2.694m.009-1.612a4.32,4.32,0,1,0,4.3,4.341,4.324,4.324,0,0,0-4.3-4.341Z" transform="translate(-406.342 -69.427)" fill="#231f20"/>
        </g>
        <g id="Group_40" data-name="Group 40" transform="translate(449.809 193.777)">
          <path id="Path_281" data-name="Path 281" d="M411.221,27.633a5.825,5.825,0,1,0-5.8-5.855A5.824,5.824,0,0,0,411.221,27.633Z" transform="translate(-403.812 -14.369)" fill="#c4c4c4"/>
          <path id="Path_282" data-name="Path 282" d="M411.957,16.658a5.825,5.825,0,1,1-5.855,5.8,5.824,5.824,0,0,1,5.855-5.8m.009-1.614a7.439,7.439,0,1,0,7.4,7.476,7.448,7.448,0,0,0-7.4-7.476Z" transform="translate(-404.487 -15.044)" fill="#231f20"/>
        </g>
        <g id="Group_41" data-name="Group 41" transform="translate(545.254 245.485)">
          <path id="Path_283" data-name="Path 283" d="M463.936,46.062a2.973,2.973,0,1,0,2.957,2.988A2.974,2.974,0,0,0,463.936,46.062Z" transform="translate(-459.334 -44.448)" fill="#c4c4c4"/>
          <path id="Path_284" data-name="Path 284" d="M464.61,46.737a2.973,2.973,0,1,1-2.989,2.957,2.971,2.971,0,0,1,2.989-2.957m.007-1.614a4.587,4.587,0,1,0,4.564,4.611,4.59,4.59,0,0,0-4.564-4.611Z" transform="translate(-460.008 -45.123)" fill="#231f20"/>
        </g>
        <g id="Group_42" data-name="Group 42" transform="translate(500.762 61.791)">
          <path id="Path_285" data-name="Path 285" d="M438.387-60.795a3.3,3.3,0,0,0-3.321,3.289,3.3,3.3,0,0,0,3.289,3.323,3.3,3.3,0,0,0,3.321-3.289A3.306,3.306,0,0,0,438.387-60.795Z" transform="translate(-433.452 62.408)" fill="#c4c4c4"/>
          <path id="Path_286" data-name="Path 286" d="M439.063-60.12a3.306,3.306,0,0,1,3.289,3.323,3.3,3.3,0,0,1-3.321,3.289,3.3,3.3,0,0,1-3.289-3.323,3.3,3.3,0,0,1,3.321-3.289m.009-1.612a4.924,4.924,0,0,0-4.944,4.894,4.926,4.926,0,0,0,4.894,4.944,4.924,4.924,0,0,0,4.944-4.894,4.924,4.924,0,0,0-4.894-4.944Z" transform="translate(-434.127 61.733)" fill="#231f20"/>
        </g>
        <g id="Group_43" data-name="Group 43" transform="translate(692.452 694.768)">
          <path id="Path_287" data-name="Path 287" d="M549.678,307.412a3.088,3.088,0,1,0,3.072,3.1A3.088,3.088,0,0,0,549.678,307.412Z" transform="translate(-544.959 -305.798)" fill="#c4c4c4"/>
          <path id="Path_288" data-name="Path 288" d="M550.353,308.087a3.088,3.088,0,1,1-3.1,3.072,3.088,3.088,0,0,1,3.1-3.072m.007-1.614a4.7,4.7,0,1,0,4.679,4.726,4.707,4.707,0,0,0-4.679-4.726Z" transform="translate(-545.634 -306.473)" fill="#231f20"/>
        </g>
        <g id="Group_44" data-name="Group 44" transform="translate(733.234 559.471)">
          <circle id="Ellipse_2" data-name="Ellipse 2" cx="3.844" cy="3.844" r="3.844" transform="translate(1.613 1.614)" fill="#c4c4c4"/>
          <path id="Path_289" data-name="Path 289" d="M574.834,229.384a3.844,3.844,0,1,1-3.865,3.823,3.844,3.844,0,0,1,3.865-3.823m.009-1.614a5.457,5.457,0,1,0,5.429,5.486,5.463,5.463,0,0,0-5.429-5.486Z" transform="translate(-569.357 -227.77)" fill="#231f20"/>
        </g>
      </g>
    </g>
  </g>
</svg>
