<svg id="Group_59" data-name="Group 59" xmlns="http://www.w3.org/2000/svg" width="29.346" height="29.339" viewBox="0 0 29.346 29.339">
  <g id="Group_57" data-name="Group 57" transform="translate(8.607 8.352)">
    <g id="Group_56" data-name="Group 56">
      <rect id="Rectangle_14" data-name="Rectangle 14" width="2.505" height="7.746" transform="translate(0.24 4.045)" fill="#fff"/>
      <path id="Path_195" data-name="Path 195" d="M168.906,410.629a1.492,1.492,0,1,0-1.48-1.492A1.489,1.489,0,0,0,168.906,410.629Z" transform="translate(-167.426 -407.644)" fill="#fff"/>
    </g>
    <path id="Path_196" data-name="Path 196" d="M171.207,412.94c0-1.139.524-1.817,1.527-1.817.921,0,1.363.65,1.363,1.817V416.8l2.493.041v-4.777c0-2.168-1.227-3.215-2.944-3.215a2.822,2.822,0,0,0-2.439,1.338v-1.092h-2.4v7.746h2.4Z" transform="translate(-164.458 -405.049)" fill="#fff"/>
  </g>
  <g id="Group_58" data-name="Group 58">
    <path id="Path_197" data-name="Path 197" d="M179.369,434.336a14.67,14.67,0,1,1,14.674-14.668A14.685,14.685,0,0,1,179.369,434.336Zm0-27.648a12.979,12.979,0,1,0,12.98,12.98A12.992,12.992,0,0,0,179.369,406.688Z" transform="translate(-164.698 -404.997)" fill="#fff"/>
  </g>
</svg>
