<svg xmlns="http://www.w3.org/2000/svg" width="138" height="138" viewBox="0 0 138 138">
  <g id="Group_21124" data-name="Group 21124" transform="translate(0 -987.862)">
    <circle id="Ellipse_7" data-name="Ellipse 7" cx="69" cy="69" r="69" transform="translate(0 987.862)" fill="#463b6b"/>
    <path id="Path_54579" data-name="Path 54579" d="M77.891,1005.132l-1.334-5.113-5.113-1.332,5.113-1.332,1.332-5.113,1.332,5.113,5.113,1.332-5.113,1.332ZM23.9,1024.711l-.887-3.407-3.41-.889,3.41-.887.887-3.409.887,3.409,3.41.887-3.41.889Zm-10.742,38.15-1.22-4.686-4.688-1.222,4.688-1.22,1.22-4.688,1.22,4.688,4.688,1.22-4.688,1.222Zm96.68-4.834-1.111-4.26-4.263-1.111,4.263-1.109,1.109-4.262,1.111,4.262,4.26,1.109-4.26,1.111Zm-82.711-46.189-.666-2.557-2.557-.666,2.557-.666.666-2.557.666,2.557,2.557.666-2.557.666Zm78.682,81.355-.834-3.2-3.195-.831,3.195-.833.834-3.195.831,3.195,3.2.833-3.2.831ZM99.1,1027.949l-.666-2.557-2.557-.666,2.557-.666.666-2.557.666,2.557,2.557.666-2.557.666Z" transform="translate(8.326 5.03)" fill="#fff"/>
    <g id="Group_21123" data-name="Group 21123" transform="translate(36.523 1021.163)">
      <path id="Path_54580" data-name="Path 54580" d="M-121.448,1068.393c6.445,3.721,6.746,32.162,25.352,42.9h-50.7C-128.194,1100.555-127.894,1072.114-121.448,1068.393Z" transform="translate(153.675 -1066.178)" fill="#f05542"/>
      <rect id="Rectangle_1063" data-name="Rectangle 1063" width="64.453" height="6.445" transform="translate(0 49.414)" fill="#60c5b8"/>
      <rect id="Rectangle_1064" data-name="Rectangle 1064" width="21.484" height="6.445" rx="1" transform="translate(21.484 53.711)" fill="#e9eded"/>
      <path id="Path_54581" data-name="Path 54581" d="M-139,1094.362h17.188l-2.148,6.445h-12.891Z" transform="translate(162.633 -1036.354)" fill="#e9eded"/>
      <path id="Path_54582" data-name="Path 54582" d="M-149.994,1096.1a53.7,53.7,0,0,1,64.44,0" transform="translate(150.007 -1046.689)" fill="#60c5b8"/>
      <path id="Path_54583" data-name="Path 54583" d="M-130.406,1067.362c-2.148,0-6.445,7.09-8.594,14.179v41.68h17.188v-41.68C-123.961,1074.452-128.258,1067.362-130.406,1067.362Z" transform="translate(162.633 -1067.362)" fill="#e9eded"/>
      <path id="Path_54584" data-name="Path 54584" d="M-139,1074.436a40.648,40.648,0,0,1,8.594-1.074,40.648,40.648,0,0,1,8.594,1.074v4.3a40.648,40.648,0,0,0-8.594-1.074,40.648,40.648,0,0,0-8.594,1.074v-4.3Z" transform="translate(162.633 -1060.471)" fill="#2b4255"/>
      <path id="Path_54585" data-name="Path 54585" d="M-128,1089.908v4.1m-21.506-2.052h21.233m19.882,0h21.231" transform="translate(150.563 -1041.469)" fill="none" stroke="#2b4255" stroke-linecap="round" stroke-linejoin="round" stroke-width="1"/>
      <path id="Path_54586" data-name="Path 54586" d="M-130.5,1089.908v4.1" transform="translate(172.395 -1041.469)" fill="#2b4255" stroke="#2b4255" stroke-linecap="round" stroke-linejoin="round" stroke-width="1" fill-rule="evenodd"/>
      <rect id="Rectangle_1065" data-name="Rectangle 1065" width="12.891" height="2.148" rx="0.5" transform="translate(25.781 40.82)" fill="#2b4255"/>
      <rect id="Rectangle_1066" data-name="Rectangle 1066" width="12.891" height="2.148" rx="0.5" transform="translate(25.781 45.117)" fill="#2b4255"/>
      <rect id="Rectangle_1067" data-name="Rectangle 1067" width="12.891" height="2.148" rx="0.5" transform="translate(25.781 49.414)" fill="#2b4255"/>
    </g>
    <rect id="Rectangle_1068" data-name="Rectangle 1068" width="12.891" height="25.781" transform="translate(62.305 1087.765)" fill="#e9eded"/>
    <path id="Path_54587" data-name="Path 54587" d="M49.29,1040.362a4.834,4.834,0,0,0-4.1,2.29,5.856,5.856,0,0,0-5.908,2.125,7.364,7.364,0,0,0-6.321,1.845,7.493,7.493,0,0,0-9.062,1.539,10.743,10.743,0,0,0-12.1,1.141,68.174,68.174,0,0,0,87.287-.067,11.313,11.313,0,0,0-6.291-2.428,10.745,10.745,0,0,0-5.221,1.354,7.492,7.492,0,0,0-9.062-1.539,7.518,7.518,0,0,0-5.053-1.964,7.386,7.386,0,0,0-1.268.118,5.856,5.856,0,0,0-5.908-2.125,4.828,4.828,0,1,0-6.1,6.942,5.368,5.368,0,0,0-2.249,2.3,7.521,7.521,0,0,0-5.629-2.924,4.834,4.834,0,0,0-3.014-8.611Z" transform="translate(13.552 60.293)" fill="#e9eded"/>
  </g>
</svg>
