<svg xmlns="http://www.w3.org/2000/svg" xmlns:xlink="http://www.w3.org/1999/xlink" width="24" height="24" viewBox="0 0 24 24">
  <defs>
    <clipPath id="clip-path">
      <rect id="Rectangle_69" data-name="Rectangle 69" width="24" height="24" transform="translate(34)" fill="#fff"/>
    </clipPath>
  </defs>
  <g id="Group_1864" data-name="Group 1864" transform="translate(-34)" clip-path="url(#clip-path)">
    <path id="Path_65" data-name="Path 65" d="M55.068,0A2.934,2.934,0,0,1,58,2.932V21.068A2.934,2.934,0,0,1,55.068,24H36.932A2.934,2.934,0,0,1,34,21.068V2.932A2.934,2.934,0,0,1,36.932,0Zm-11.9,19.9a9.79,9.79,0,0,0,9.856-9.856c0-.151,0-.3-.007-.445a7.1,7.1,0,0,0,1.731-1.8,7.03,7.03,0,0,1-1.99.546,3.463,3.463,0,0,0,1.523-1.918,7.015,7.015,0,0,1-2.2.841,3.466,3.466,0,0,0-5.991,2.371,3.176,3.176,0,0,0,.093.79,9.827,9.827,0,0,1-7.141-3.621,3.462,3.462,0,0,0,1.078,4.619A3.4,3.4,0,0,1,38.553,11v.043a3.468,3.468,0,0,0,2.78,3.4,3.451,3.451,0,0,1-.912.122,3.307,3.307,0,0,1-.654-.065A3.459,3.459,0,0,0,43,16.9a6.963,6.963,0,0,1-4.3,1.48,6.286,6.286,0,0,1-.826-.05A9.651,9.651,0,0,0,43.165,19.9Z" fill="#fff" fill-rule="evenodd"/>
  </g>
</svg>
