<svg xmlns="http://www.w3.org/2000/svg" width="29.343" height="29.346" viewBox="0 0 29.343 29.346">
  <g id="Group_55" data-name="Group 55" transform="translate(0 0)">
    <path id="Path_193" data-name="Path 193" d="M153.682,417.626a7.49,7.49,0,0,0,4.057,1.189c5.862,0,7.686-4.149,7.519-7.872a4.725,4.725,0,0,0,1.322-1.369,5.006,5.006,0,0,1-1.467.423,2.588,2.588,0,0,0,1.111-1.47,5.265,5.265,0,0,1-1.682.64,2.64,2.64,0,0,0-1.931-.833,2.737,2.737,0,0,0-2.546,3.379,7.7,7.7,0,0,1-5.484-2.9,2.651,2.651,0,0,0,.817,3.534,2.622,2.622,0,0,1-1.2-.331,2.652,2.652,0,0,0,2.123,2.628,2.665,2.665,0,0,1-1.2.044,2.722,2.722,0,0,0,2.587,1.748A5.682,5.682,0,0,1,153.682,417.626Z" transform="translate(-145.46 -398.9)" fill="#fff"/>
    <g id="Group_54" data-name="Group 54">
      <path id="Path_194" data-name="Path 194" d="M165.747,434.69a14.673,14.673,0,1,1,14.671-14.671A14.688,14.688,0,0,1,165.747,434.69Zm0-27.651a12.98,12.98,0,1,0,12.977,12.98A12.995,12.995,0,0,0,165.747,407.038Z" transform="translate(-151.076 -405.344)" fill="#fff"/>
    </g>
  </g>
</svg>
